{
	"asset":{
		"generator":"Khronos glTF Blender I/O v5.2.40",
		"version":"2.0"
	},
	"extensionsUsed":[
		"KHR_materials_emissive_strength"
	],
	"scene":0,
	"scenes":[
		{
			"name":"Scene",
			"nodes":[
				18
			]
		}
	],
	"nodes":[
		{
			"extras":{
				"export_kind":"panel_frame",
				"panel":"CON_L",
				"controls":"[{\"kind\":\"header\",\"text\":\"CAPACITORS\",\"x\":-0.12,\"y\":0.1145,\"z\":0.012,\"h\":0.005},{\"kind\":\"readout\",\"text\":\"CAPACITORS\",\"x\":-0.12,\"y\":0.0815,\"z\":0.012,\"w\":0.058,\"h\":0.034,\"target\":\"CON_L_CAP\"},{\"kind\":\"band\",\"text\":\"CAPACITORS\",\"x\":-0.12,\"y\":0.0,\"z\":0.012,\"w\":0.08,\"h\":0.262},{\"kind\":\"gauge\",\"text\":\"PRI CHG\",\"x\":-0.12,\"y\":0.0335,\"z\":0.012,\"r\":0.018,\"label_y\":0.0065,\"label_h\":0.003},{\"kind\":\"rotary\",\"text\":\"SOURCE\",\"x\":-0.12,\"y\":-0.0245,\"z\":0.012,\"r\":0.016,\"label_y\":-0.0525,\"label_h\":0.003,\"opts\":[\"EXT\",\"APU\",\"BATT\",\"RCTR\"],\"state\":\"EXT\"},{\"kind\":\"switch\",\"text\":\"PRI ARM\",\"x\":-0.141,\"y\":-0.0755,\"z\":0.012,\"label_y\":-0.0955,\"label_h\":0.003,\"opts\":[\"OFF\",\"ARM\"],\"state\":\"OFF\"},{\"kind\":\"switch\",\"text\":\"SEC ARM\",\"x\":-0.099,\"y\":-0.0755,\"z\":0.012,\"label_y\":-0.0955,\"label_h\":0.003,\"opts\":[\"OFF\",\"ARM\"],\"state\":\"OFF\"},{\"kind\":\"switch\",\"text\":\"DOCK TIE\",\"x\":-0.141,\"y\":-0.113,\"z\":0.012,\"label_y\":-0.093,\"label_h\":0.003,\"opts\":[\"ISOL\",\"DRAW\",\"FEED\"],\"state\":\"ISOL\"},{\"kind\":\"guard\",\"text\":\"BANK DUMP\",\"x\":-0.099,\"y\":-0.113,\"z\":0.012,\"w\":0.028,\"h\":0.0025,\"cls\":\"red\"},{\"kind\":\"header\",\"text\":\"COOLING\",\"x\":-0.04,\"y\":0.1145,\"z\":0.012,\"h\":0.005},{\"kind\":\"readout\",\"text\":\"COOLING\",\"x\":-0.04,\"y\":0.0815,\"z\":0.012,\"w\":0.058,\"h\":0.034,\"target\":\"CON_L_COOL\"},{\"kind\":\"band\",\"text\":\"COOLING\",\"x\":-0.04,\"y\":0.0,\"z\":0.012,\"w\":0.08,\"h\":0.262},{\"kind\":\"gauge\",\"text\":\"LOOP T\",\"x\":-0.04,\"y\":0.0335,\"z\":0.012,\"r\":0.018,\"label_y\":0.0065,\"label_h\":0.003},{\"kind\":\"rotary\",\"text\":\"RAD TRIM\",\"x\":-0.04,\"y\":-0.0245,\"z\":0.012,\"r\":0.016,\"label_y\":-0.0525,\"label_h\":0.003,\"opts\":[\"AUTO\",\"0\",\"30\",\"60\",\"90\"],\"state\":\"AUTO\"},{\"kind\":\"switch\",\"text\":\"PUMP A\",\"x\":-0.061,\"y\":-0.0755,\"z\":0.012,\"label_y\":-0.0955,\"label_h\":0.003,\"opts\":[\"OFF\",\"PRIME\",\"RUN\"],\"state\":\"OFF\"},{\"kind\":\"switch\",\"text\":\"PUMP B\",\"x\":-0.019,\"y\":-0.0755,\"z\":0.012,\"label_y\":-0.0955,\"label_h\":0.003,\"opts\":[\"OFF\",\"PRIME\",\"RUN\"],\"state\":\"OFF\"},{\"kind\":\"switch\",\"text\":\"RADIATOR\",\"x\":-0.061,\"y\":-0.113,\"z\":0.012,\"label_y\":-0.093,\"label_h\":0.003,\"opts\":[\"STOW\",\"DEPLOY\"],\"state\":\"STOW\"},{\"kind\":\"guard\",\"text\":\"THERM OVRD\",\"x\":-0.019,\"y\":-0.113,\"z\":0.012,\"w\":0.028,\"h\":0.0025,\"cls\":\"caution\"},{\"kind\":\"header\",\"text\":\"REACTOR\",\"x\":0.04,\"y\":0.1145,\"z\":0.012,\"h\":0.005},{\"kind\":\"readout\",\"text\":\"REACTOR\",\"x\":0.04,\"y\":0.0815,\"z\":0.012,\"w\":0.058,\"h\":0.034,\"target\":\"CON_L_RCTR\"},{\"kind\":\"band\",\"text\":\"REACTOR\",\"x\":0.04,\"y\":0.0,\"z\":0.012,\"w\":0.08,\"h\":0.262},{\"kind\":\"gauge\",\"text\":\"DRV MJ\",\"x\":0.04,\"y\":0.0335,\"z\":0.012,\"r\":0.018,\"label_y\":0.0065,\"label_h\":0.003},{\"kind\":\"rotary\",\"text\":\"PELLET Hz\",\"x\":0.04,\"y\":-0.0245,\"z\":0.012,\"r\":0.016,\"label_y\":-0.0525,\"label_h\":0.003,\"opts\":[\"0\",\"5\",\"10\",\"20\",\"50\"],\"state\":\"0\"},{\"kind\":\"switch\",\"text\":\"DRIVERS\",\"x\":0.019,\"y\":-0.0755,\"z\":0.012,\"label_y\":-0.0955,\"label_h\":0.003,\"opts\":[\"OFF\",\"ON\"],\"state\":\"OFF\"},{\"kind\":\"switch\",\"text\":\"RCTR BUS\",\"x\":0.061,\"y\":-0.0755,\"z\":0.012,\"label_y\":-0.0955,\"label_h\":0.003,\"opts\":[\"OFF\",\"ON\"],\"state\":\"OFF\"},{\"kind\":\"guard\",\"text\":\"SCRAM\",\"x\":0.019,\"y\":-0.113,\"z\":0.012,\"w\":0.028,\"h\":0.0035,\"cls\":\"red\"},{\"kind\":\"guard\",\"text\":\"IGNITION\",\"x\":0.061,\"y\":-0.113,\"z\":0.012,\"w\":0.028,\"h\":0.0025,\"cls\":\"caution\"},{\"kind\":\"header\",\"text\":\"THRUST\",\"x\":0.12,\"y\":0.1145,\"z\":0.012,\"h\":0.005},{\"kind\":\"readout\",\"text\":\"THRUST\",\"x\":0.12,\"y\":0.0815,\"z\":0.012,\"w\":0.058,\"h\":0.034,\"target\":\"CON_L_THR\"},{\"kind\":\"band\",\"text\":\"THRUST\",\"x\":0.12,\"y\":0.0,\"z\":0.012,\"w\":0.08,\"h\":0.262},{\"kind\":\"gauge\",\"text\":\"THRUST\",\"x\":0.12,\"y\":0.0335,\"z\":0.012,\"r\":0.018,\"label_y\":0.0065,\"label_h\":0.003},{\"kind\":\"rotary\",\"text\":\"DOPING %\",\"x\":0.12,\"y\":-0.0245,\"z\":0.012,\"r\":0.016,\"label_y\":-0.0525,\"label_h\":0.003,\"opts\":[\"0\",\"20\",\"40\",\"60\",\"80\",\"100\"],\"state\":\"0\"},{\"kind\":\"switch\",\"text\":\"NOZZLE\",\"x\":0.099,\"y\":-0.0755,\"z\":0.012,\"label_y\":-0.0955,\"label_h\":0.003,\"opts\":[\"OFF\",\"ON\"],\"state\":\"OFF\"},{\"kind\":\"switch\",\"text\":\"THR LIM\",\"x\":0.141,\"y\":-0.0755,\"z\":0.012,\"label_y\":-0.0955,\"label_h\":0.003,\"opts\":[\"OFF\",\"ON\"],\"state\":\"OFF\"},{\"kind\":\"rotary\",\"text\":\"EXTRACT %\",\"x\":0.103,\"y\":-0.111,\"z\":0.012,\"r\":0.012,\"label_x\":0.126,\"label_y\":-0.111,\"label_h\":0.003,\"label_just\":\"L\",\"opts\":[\"0\",\"10\",\"20\",\"30\",\"40\"],\"state\":\"0\"}]",
				"control_count":35
			},
			"name":"CS_Panel_CON_L",
			"rotation":[
				0.20339518785476685,
				-0.7964157462120056,
				0.41231653094291687,
				0.39287078380584717
			],
			"translation":[
				0.28299999237060547,
				0.25800007581710815,
				0.1850000023841858
			]
		},
		{
			"children":[
				0
			],
			"extras":{
				"joint":"hinge",
				"axis":[
					0.0,
					1.0,
					-0.0
				],
				"min_deg":0.0,
				"max_deg":74.0,
				"stow":"swings outboard and forward for ingress"
			},
			"mesh":0,
			"name":"CS_Console_L",
			"translation":[
				0.2919999957084656,
				0.06199997663497925,
				0.2150000035762787
			]
		},
		{
			"extras":{
				"joint":"hinge",
				"axis":[
					0.0,
					1.0,
					-0.0
				],
				"min_deg":0.0,
				"max_deg":-74.0,
				"stow":"swings outboard and forward for ingress"
			},
			"mesh":1,
			"name":"CS_Console_R",
			"translation":[
				-0.2919999957084656,
				0.06199997663497925,
				0.2150000035762787
			]
		},
		{
			"extras":{
				"export_kind":"panel_frame",
				"panel":"MFD_C",
				"controls":"[{\"kind\":\"key\",\"text\":\"LSKX-0\",\"x\":-0.0745,\"y\":-0.047,\"z\":0.014,\"w\":0.013,\"h\":0.015},{\"kind\":\"key\",\"text\":\"LSKX-1\",\"x\":-0.0745,\"y\":-0.0235,\"z\":0.014,\"w\":0.013,\"h\":0.015},{\"kind\":\"key\",\"text\":\"LSKX-2\",\"x\":-0.0745,\"y\":0.0,\"z\":0.014,\"w\":0.013,\"h\":0.015},{\"kind\":\"key\",\"text\":\"LSKX-3\",\"x\":-0.0745,\"y\":0.0235,\"z\":0.014,\"w\":0.013,\"h\":0.015},{\"kind\":\"key\",\"text\":\"LSKX-4\",\"x\":-0.0745,\"y\":0.047,\"z\":0.014,\"w\":0.013,\"h\":0.015},{\"kind\":\"key\",\"text\":\"LSKX+0\",\"x\":0.0745,\"y\":-0.047,\"z\":0.014,\"w\":0.013,\"h\":0.015},{\"kind\":\"key\",\"text\":\"LSKX+1\",\"x\":0.0745,\"y\":-0.0235,\"z\":0.014,\"w\":0.013,\"h\":0.015},{\"kind\":\"key\",\"text\":\"LSKX+2\",\"x\":0.0745,\"y\":0.0,\"z\":0.014,\"w\":0.013,\"h\":0.015},{\"kind\":\"key\",\"text\":\"LSKX+3\",\"x\":0.0745,\"y\":0.0235,\"z\":0.014,\"w\":0.013,\"h\":0.015},{\"kind\":\"key\",\"text\":\"LSKX+4\",\"x\":0.0745,\"y\":0.047,\"z\":0.014,\"w\":0.013,\"h\":0.015},{\"kind\":\"key\",\"text\":\"LSKY-0\",\"x\":-0.047,\"y\":-0.0765,\"z\":0.014,\"w\":0.015,\"h\":0.013},{\"kind\":\"key\",\"text\":\"LSKY-1\",\"x\":-0.0235,\"y\":-0.0765,\"z\":0.014,\"w\":0.015,\"h\":0.013},{\"kind\":\"key\",\"text\":\"LSKY-2\",\"x\":0.0,\"y\":-0.0765,\"z\":0.014,\"w\":0.015,\"h\":0.013},{\"kind\":\"key\",\"text\":\"LSKY-3\",\"x\":0.0235,\"y\":-0.0765,\"z\":0.014,\"w\":0.015,\"h\":0.013},{\"kind\":\"key\",\"text\":\"LSKY-4\",\"x\":0.047,\"y\":-0.0765,\"z\":0.014,\"w\":0.015,\"h\":0.013},{\"kind\":\"key\",\"text\":\"LSKY+0\",\"x\":-0.047,\"y\":0.0765,\"z\":0.014,\"w\":0.015,\"h\":0.013},{\"kind\":\"key\",\"text\":\"LSKY+1\",\"x\":-0.0235,\"y\":0.0765,\"z\":0.014,\"w\":0.015,\"h\":0.013},{\"kind\":\"key\",\"text\":\"LSKY+2\",\"x\":0.0,\"y\":0.0765,\"z\":0.014,\"w\":0.015,\"h\":0.013},{\"kind\":\"key\",\"text\":\"LSKY+3\",\"x\":0.0235,\"y\":0.0765,\"z\":0.014,\"w\":0.015,\"h\":0.013},{\"kind\":\"key\",\"text\":\"LSKY+4\",\"x\":0.047,\"y\":0.0765,\"z\":0.014,\"w\":0.015,\"h\":0.013},{\"kind\":\"rotary\",\"text\":\"BRT\",\"x\":-0.072,\"y\":-0.08,\"z\":0.014,\"r\":0.007},{\"kind\":\"rotary\",\"text\":\"CONT\",\"x\":0.072,\"y\":-0.08,\"z\":0.014,\"r\":0.007}]",
				"control_count":22
			},
			"name":"CS_Panel_MFD_C",
			"rotation":[
				0,
				-0.84178626537323,
				0.5398109555244446,
				6.355309523087271e-08
			],
			"translation":[
				0,
				0.17039871215820312,
				-0.007307231426239014
			]
		},
		{
			"extras":{
				"export_kind":"panel_frame",
				"panel":"MFD_L",
				"controls":"[{\"kind\":\"key\",\"text\":\"LSKX-0\",\"x\":-0.0745,\"y\":-0.047,\"z\":0.014,\"w\":0.013,\"h\":0.015},{\"kind\":\"key\",\"text\":\"LSKX-1\",\"x\":-0.0745,\"y\":-0.0235,\"z\":0.014,\"w\":0.013,\"h\":0.015},{\"kind\":\"key\",\"text\":\"LSKX-2\",\"x\":-0.0745,\"y\":0.0,\"z\":0.014,\"w\":0.013,\"h\":0.015},{\"kind\":\"key\",\"text\":\"LSKX-3\",\"x\":-0.0745,\"y\":0.0235,\"z\":0.014,\"w\":0.013,\"h\":0.015},{\"kind\":\"key\",\"text\":\"LSKX-4\",\"x\":-0.0745,\"y\":0.047,\"z\":0.014,\"w\":0.013,\"h\":0.015},{\"kind\":\"key\",\"text\":\"LSKX+0\",\"x\":0.0745,\"y\":-0.047,\"z\":0.014,\"w\":0.013,\"h\":0.015},{\"kind\":\"key\",\"text\":\"LSKX+1\",\"x\":0.0745,\"y\":-0.0235,\"z\":0.014,\"w\":0.013,\"h\":0.015},{\"kind\":\"key\",\"text\":\"LSKX+2\",\"x\":0.0745,\"y\":0.0,\"z\":0.014,\"w\":0.013,\"h\":0.015},{\"kind\":\"key\",\"text\":\"LSKX+3\",\"x\":0.0745,\"y\":0.0235,\"z\":0.014,\"w\":0.013,\"h\":0.015},{\"kind\":\"key\",\"text\":\"LSKX+4\",\"x\":0.0745,\"y\":0.047,\"z\":0.014,\"w\":0.013,\"h\":0.015},{\"kind\":\"key\",\"text\":\"LSKY-0\",\"x\":-0.047,\"y\":-0.0765,\"z\":0.014,\"w\":0.015,\"h\":0.013},{\"kind\":\"key\",\"text\":\"LSKY-1\",\"x\":-0.0235,\"y\":-0.0765,\"z\":0.014,\"w\":0.015,\"h\":0.013},{\"kind\":\"key\",\"text\":\"LSKY-2\",\"x\":0.0,\"y\":-0.0765,\"z\":0.014,\"w\":0.015,\"h\":0.013},{\"kind\":\"key\",\"text\":\"LSKY-3\",\"x\":0.0235,\"y\":-0.0765,\"z\":0.014,\"w\":0.015,\"h\":0.013},{\"kind\":\"key\",\"text\":\"LSKY-4\",\"x\":0.047,\"y\":-0.0765,\"z\":0.014,\"w\":0.015,\"h\":0.013},{\"kind\":\"key\",\"text\":\"LSKY+0\",\"x\":-0.047,\"y\":0.0765,\"z\":0.014,\"w\":0.015,\"h\":0.013},{\"kind\":\"key\",\"text\":\"LSKY+1\",\"x\":-0.0235,\"y\":0.0765,\"z\":0.014,\"w\":0.015,\"h\":0.013},{\"kind\":\"key\",\"text\":\"LSKY+2\",\"x\":0.0,\"y\":0.0765,\"z\":0.014,\"w\":0.015,\"h\":0.013},{\"kind\":\"key\",\"text\":\"LSKY+3\",\"x\":0.0235,\"y\":0.0765,\"z\":0.014,\"w\":0.015,\"h\":0.013},{\"kind\":\"key\",\"text\":\"LSKY+4\",\"x\":0.047,\"y\":0.0765,\"z\":0.014,\"w\":0.015,\"h\":0.013},{\"kind\":\"rotary\",\"text\":\"BRT\",\"x\":-0.072,\"y\":-0.08,\"z\":0.014,\"r\":0.007},{\"kind\":\"rotary\",\"text\":\"CONT\",\"x\":0.072,\"y\":-0.08,\"z\":0.014,\"r\":0.007}]",
				"control_count":22
			},
			"name":"CS_Panel_MFD_L",
			"rotation":[
				0.07087091356515884,
				-0.8362667560577393,
				0.5321968793869019,
				0.11136290431022644
			],
			"translation":[
				0.1860000044107437,
				0.1603987216949463,
				-0.023307204246520996
			]
		},
		{
			"extras":{
				"export_kind":"panel_frame",
				"panel":"MFD_R",
				"controls":"[{\"kind\":\"key\",\"text\":\"LSKX-0\",\"x\":-0.0745,\"y\":-0.047,\"z\":0.014,\"w\":0.013,\"h\":0.015},{\"kind\":\"key\",\"text\":\"LSKX-1\",\"x\":-0.0745,\"y\":-0.0235,\"z\":0.014,\"w\":0.013,\"h\":0.015},{\"kind\":\"key\",\"text\":\"LSKX-2\",\"x\":-0.0745,\"y\":0.0,\"z\":0.014,\"w\":0.013,\"h\":0.015},{\"kind\":\"key\",\"text\":\"LSKX-3\",\"x\":-0.0745,\"y\":0.0235,\"z\":0.014,\"w\":0.013,\"h\":0.015},{\"kind\":\"key\",\"text\":\"LSKX-4\",\"x\":-0.0745,\"y\":0.047,\"z\":0.014,\"w\":0.013,\"h\":0.015},{\"kind\":\"key\",\"text\":\"LSKX+0\",\"x\":0.0745,\"y\":-0.047,\"z\":0.014,\"w\":0.013,\"h\":0.015},{\"kind\":\"key\",\"text\":\"LSKX+1\",\"x\":0.0745,\"y\":-0.0235,\"z\":0.014,\"w\":0.013,\"h\":0.015},{\"kind\":\"key\",\"text\":\"LSKX+2\",\"x\":0.0745,\"y\":0.0,\"z\":0.014,\"w\":0.013,\"h\":0.015},{\"kind\":\"key\",\"text\":\"LSKX+3\",\"x\":0.0745,\"y\":0.0235,\"z\":0.014,\"w\":0.013,\"h\":0.015},{\"kind\":\"key\",\"text\":\"LSKX+4\",\"x\":0.0745,\"y\":0.047,\"z\":0.014,\"w\":0.013,\"h\":0.015},{\"kind\":\"key\",\"text\":\"LSKY-0\",\"x\":-0.047,\"y\":-0.0765,\"z\":0.014,\"w\":0.015,\"h\":0.013},{\"kind\":\"key\",\"text\":\"LSKY-1\",\"x\":-0.0235,\"y\":-0.0765,\"z\":0.014,\"w\":0.015,\"h\":0.013},{\"kind\":\"key\",\"text\":\"LSKY-2\",\"x\":0.0,\"y\":-0.0765,\"z\":0.014,\"w\":0.015,\"h\":0.013},{\"kind\":\"key\",\"text\":\"LSKY-3\",\"x\":0.0235,\"y\":-0.0765,\"z\":0.014,\"w\":0.015,\"h\":0.013},{\"kind\":\"key\",\"text\":\"LSKY-4\",\"x\":0.047,\"y\":-0.0765,\"z\":0.014,\"w\":0.015,\"h\":0.013},{\"kind\":\"key\",\"text\":\"LSKY+0\",\"x\":-0.047,\"y\":0.0765,\"z\":0.014,\"w\":0.015,\"h\":0.013},{\"kind\":\"key\",\"text\":\"LSKY+1\",\"x\":-0.0235,\"y\":0.0765,\"z\":0.014,\"w\":0.015,\"h\":0.013},{\"kind\":\"key\",\"text\":\"LSKY+2\",\"x\":0.0,\"y\":0.0765,\"z\":0.014,\"w\":0.015,\"h\":0.013},{\"kind\":\"key\",\"text\":\"LSKY+3\",\"x\":0.0235,\"y\":0.0765,\"z\":0.014,\"w\":0.015,\"h\":0.013},{\"kind\":\"key\",\"text\":\"LSKY+4\",\"x\":0.047,\"y\":0.0765,\"z\":0.014,\"w\":0.015,\"h\":0.013},{\"kind\":\"rotary\",\"text\":\"BRT\",\"x\":-0.072,\"y\":-0.08,\"z\":0.014,\"r\":0.007},{\"kind\":\"rotary\",\"text\":\"CONT\",\"x\":0.072,\"y\":-0.08,\"z\":0.014,\"r\":0.007}]",
				"control_count":22
			},
			"name":"CS_Panel_MFD_R",
			"rotation":[
				0.07087091356515884,
				0.8362667560577393,
				-0.5321968793869019,
				0.11136290431022644
			],
			"translation":[
				-0.1860000044107437,
				0.1603987216949463,
				-0.023307204246520996
			]
		},
		{
			"extras":{
				"export_kind":"screen",
				"screen":"MFD_C"
			},
			"mesh":2,
			"name":"CS_Screen_MFD_C",
			"translation":[
				0,
				-1.2196012735366821,
				-0.5683072209358215
			]
		},
		{
			"extras":{
				"export_kind":"screen",
				"screen":"MFD_L"
			},
			"mesh":3,
			"name":"CS_Screen_MFD_L",
			"translation":[
				0,
				-1.2196012735366821,
				-0.5683072209358215
			]
		},
		{
			"extras":{
				"export_kind":"screen",
				"screen":"MFD_R"
			},
			"mesh":4,
			"name":"CS_Screen_MFD_R",
			"translation":[
				0,
				-1.2196012735366821,
				-0.5683072209358215
			]
		},
		{
			"children":[
				3,
				4,
				5,
				6,
				7,
				8
			],
			"extras":{
				"joint":"slide",
				"axis":[
					0.0,
					0.9901,
					0.14
				],
				"travel_m":0.1,
				"adjust_m":[
					0.0,
					0.1
				]
			},
			"mesh":5,
			"name":"CS_MFDHead",
			"translation":[
				0,
				0.34160125255584717,
				0.04830724000930786
			]
		},
		{
			"children":[
				9
			],
			"extras":{
				"joint":"hinge",
				"axis":[
					1.0,
					0.0,
					-0.0
				],
				"min_deg":-12.0,
				"max_deg":74.0,
				"pose_deploy_deg":0.0,
				"pose_stow_deg":74.0,
				"adjust_deg":[
					-12.0,
					16.0
				]
			},
			"mesh":6,
			"name":"CS_MFDTree",
			"translation":[
				0,
				-0.001999974250793457,
				0.6200000047683716
			]
		},
		{
			"extras":{
				"export_kind":"panel_frame",
				"panel":"SWITCHBLOCK",
				"controls":"[{\"kind\":\"guard\",\"text\":\"TORCH ARM\",\"x\":-0.032,\"y\":-0.044999999999999984,\"z\":0.01,\"w\":0.028,\"h\":0.0025,\"cls\":\"caution\"},{\"kind\":\"guard\",\"text\":\"CAP DUMP\",\"x\":0.0,\"y\":-0.044999999999999984,\"z\":0.01,\"w\":0.028,\"h\":0.0025,\"cls\":\"caution\"},{\"kind\":\"guard\",\"text\":\"RCS ISOL\",\"x\":0.032,\"y\":-0.044999999999999984,\"z\":0.01,\"w\":0.028,\"h\":0.0025,\"cls\":\"caution\"},{\"kind\":\"rotary\",\"text\":\"BUS SEL\",\"x\":-0.03,\"y\":0.017000000000000015,\"z\":0.01,\"r\":0.017,\"opts\":[\"MAIN\",\"ESS\",\"TIE\",\"APU\",\"EXT\",\"OFF\"],\"state\":\"MAIN\",\"label_y\":-0.008999999999999984,\"label_h\":0.003},{\"kind\":\"rotary\",\"text\":\"LOOP SEL\",\"x\":0.03,\"y\":0.017000000000000015,\"z\":0.01,\"r\":0.017,\"opts\":[\"A\",\"B\",\"BOTH\",\"XFER\",\"BYP\",\"OFF\"],\"state\":\"A\",\"label_y\":-0.008999999999999984,\"label_h\":0.003},{\"kind\":\"keyswitch\",\"text\":\"REACTOR\",\"x\":-0.03,\"y\":0.06,\"z\":0.01,\"r\":0.012,\"opts\":[\"LOCK\",\"ENABLE\"],\"state\":\"LOCK\"},{\"kind\":\"guard\",\"text\":\"SCRAM\",\"x\":0.026,\"y\":0.06,\"z\":0.01,\"w\":0.032,\"h\":0.0035,\"cls\":\"red\"}]",
				"control_count":7
			},
			"name":"CS_Panel_SWITCHBLOCK",
			"rotation":[
				0.0498117059469223,
				0,
				0,
				0.9987586140632629
			],
			"translation":[
				-0.04799997806549072,
				0.08360767364501953,
				-0.00591045618057251
			]
		},
		{
			"children":[
				11
			],
			"extras":{
				"joint":"hinge",
				"axis":[
					0.0,
					0.0,
					-1.0
				],
				"min_deg":0.0,
				"max_deg":60.0,
				"stow":"folds up and outboard for ingress"
			},
			"mesh":7,
			"name":"CS_Side_L",
			"translation":[
				0.3779999911785126,
				0.13499999046325684,
				0.24999374151229858
			]
		},
		{
			"extras":{
				"export_kind":"panel_frame",
				"panel":"NUMPAD",
				"controls":"[{\"kind\":\"key\",\"text\":\"K00\",\"x\":-0.026999999999999996,\"y\":0.026999999999999996,\"z\":0.01,\"w\":0.0145,\"h\":0.0145,\"lit\":false},{\"kind\":\"key\",\"text\":\"K01\",\"x\":-0.009,\"y\":0.026999999999999996,\"z\":0.01,\"w\":0.0145,\"h\":0.0145,\"lit\":false},{\"kind\":\"key\",\"text\":\"K02\",\"x\":0.009,\"y\":0.026999999999999996,\"z\":0.01,\"w\":0.0145,\"h\":0.0145,\"lit\":false},{\"kind\":\"key\",\"text\":\"K03\",\"x\":0.026999999999999996,\"y\":0.026999999999999996,\"z\":0.01,\"w\":0.0145,\"h\":0.0145,\"lit\":true},{\"kind\":\"key\",\"text\":\"K10\",\"x\":-0.026999999999999996,\"y\":0.009,\"z\":0.01,\"w\":0.0145,\"h\":0.0145,\"lit\":false},{\"kind\":\"key\",\"text\":\"K11\",\"x\":-0.009,\"y\":0.009,\"z\":0.01,\"w\":0.0145,\"h\":0.0145,\"lit\":false},{\"kind\":\"key\",\"text\":\"K12\",\"x\":0.009,\"y\":0.009,\"z\":0.01,\"w\":0.0145,\"h\":0.0145,\"lit\":false},{\"kind\":\"key\",\"text\":\"K13\",\"x\":0.026999999999999996,\"y\":0.009,\"z\":0.01,\"w\":0.0145,\"h\":0.0145,\"lit\":false},{\"kind\":\"key\",\"text\":\"K20\",\"x\":-0.026999999999999996,\"y\":-0.009,\"z\":0.01,\"w\":0.0145,\"h\":0.0145,\"lit\":false},{\"kind\":\"key\",\"text\":\"K21\",\"x\":-0.009,\"y\":-0.009,\"z\":0.01,\"w\":0.0145,\"h\":0.0145,\"lit\":false},{\"kind\":\"key\",\"text\":\"K22\",\"x\":0.009,\"y\":-0.009,\"z\":0.01,\"w\":0.0145,\"h\":0.0145,\"lit\":false},{\"kind\":\"key\",\"text\":\"K23\",\"x\":0.026999999999999996,\"y\":-0.009,\"z\":0.01,\"w\":0.0145,\"h\":0.0145,\"lit\":false},{\"kind\":\"key\",\"text\":\"K30\",\"x\":-0.026999999999999996,\"y\":-0.026999999999999996,\"z\":0.01,\"w\":0.0145,\"h\":0.0145,\"lit\":true},{\"kind\":\"key\",\"text\":\"K31\",\"x\":-0.009,\"y\":-0.026999999999999996,\"z\":0.01,\"w\":0.0145,\"h\":0.0145,\"lit\":false},{\"kind\":\"key\",\"text\":\"K32\",\"x\":0.009,\"y\":-0.026999999999999996,\"z\":0.01,\"w\":0.0145,\"h\":0.0145,\"lit\":false},{\"kind\":\"key\",\"text\":\"K33\",\"x\":0.026999999999999996,\"y\":-0.026999999999999996,\"z\":0.01,\"w\":0.0145,\"h\":0.0145,\"lit\":true},{\"kind\":\"readout\",\"text\":\"TGT\",\"x\":0.0,\"y\":0.068,\"z\":0.008,\"w\":0.074,\"h\":0.02,\"target\":\"NUMPAD_TGT\"}]",
				"control_count":17
			},
			"name":"CS_Panel_NUMPAD",
			"rotation":[
				0.0498117059469223,
				0,
				0,
				0.9987586140632629
			],
			"translation":[
				0.04799997806549072,
				0.08460259437561035,
				-0.01586085557937622
			]
		},
		{
			"children":[
				13
			],
			"extras":{
				"joint":"hinge",
				"axis":[
					0.0,
					0.0,
					-1.0
				],
				"min_deg":0.0,
				"max_deg":-60.0,
				"stow":"folds up and outboard for ingress"
			},
			"mesh":8,
			"name":"CS_Side_R",
			"translation":[
				-0.3779999911785126,
				0.13499999046325684,
				0.24999374151229858
			]
		},
		{
			"children":[
				1,
				2,
				10,
				12,
				14
			],
			"extras":{
				"joint":"slide",
				"axis":[
					-0.0,
					-0.4384,
					-0.8988
				],
				"travel_m":0.13,
				"stroke_state":"extended"
			},
			"mesh":9,
			"name":"CS_Couch",
			"translation":[
				0,
				-0.20000004768371582,
				-0.05000000074505806
			]
		},
		{
			"children":[
				15
			],
			"extras":{
				"joint":"hinge",
				"axis":[
					0.0,
					0.0,
					-1.0
				],
				"min_deg":-30.0,
				"max_deg":30.0
			},
			"mesh":10,
			"name":"CS_Roll"
		},
		{
			"children":[
				16
			],
			"extras":{
				"joint":"hinge",
				"axis":[
					1.0,
					0.0,
					-0.0
				],
				"min_deg":-64.0,
				"max_deg":15.0,
				"pose_cruise_deg":0.0,
				"pose_burn_deg":-64.0,
				"pose_ingress_deg":15.0
			},
			"mesh":11,
			"name":"CS_Pitch",
			"translation":[
				0,
				1.0800000429153442,
				-0.05000000074505806
			]
		},
		{
			"children":[
				17
			],
			"mesh":12,
			"name":"CS_Base"
		}
	],
	"materials":[
		{
			"name":"CS_Seat",
			"occlusionTexture":{
				"index":0
			},
			"pbrMetallicRoughness":{
				"baseColorTexture":{
					"index":1
				},
				"metallicRoughnessTexture":{
					"index":0
				}
			}
		},
		{
			"emissiveFactor":[
				0.2222222084248513,
				1,
				0.7222221670327386
			],
			"extensions":{
				"KHR_materials_emissive_strength":{
					"emissiveStrength":1.0800000429153442
				}
			},
			"name":"CS_Screen_MFD_C",
			"pbrMetallicRoughness":{
				"baseColorFactor":[
					0.019999999552965164,
					0.029999999329447746,
					0.029999999329447746,
					1
				],
				"metallicFactor":0,
				"roughnessFactor":0.20000000298023224
			}
		},
		{
			"emissiveFactor":[
				0.2222222084248513,
				1,
				0.7222221670327386
			],
			"extensions":{
				"KHR_materials_emissive_strength":{
					"emissiveStrength":1.0800000429153442
				}
			},
			"name":"CS_Screen_MFD_L",
			"pbrMetallicRoughness":{
				"baseColorFactor":[
					0.019999999552965164,
					0.029999999329447746,
					0.029999999329447746,
					1
				],
				"metallicFactor":0,
				"roughnessFactor":0.20000000298023224
			}
		},
		{
			"emissiveFactor":[
				0.2222222084248513,
				1,
				0.7222221670327386
			],
			"extensions":{
				"KHR_materials_emissive_strength":{
					"emissiveStrength":1.0800000429153442
				}
			},
			"name":"CS_Screen_MFD_R",
			"pbrMetallicRoughness":{
				"baseColorFactor":[
					0.019999999552965164,
					0.029999999329447746,
					0.029999999329447746,
					1
				],
				"metallicFactor":0,
				"roughnessFactor":0.20000000298023224
			}
		}
	],
	"meshes":[
		{
			"name":"CS_Console_L",
			"primitives":[
				{
					"attributes":{
						"POSITION":0,
						"NORMAL":1,
						"TEXCOORD_0":2
					},
					"indices":3,
					"material":0
				}
			]
		},
		{
			"name":"CS_Console_R",
			"primitives":[
				{
					"attributes":{
						"POSITION":4,
						"NORMAL":5,
						"TEXCOORD_0":6
					},
					"indices":7,
					"material":0
				}
			]
		},
		{
			"name":"CS_Screen_MFD_C",
			"primitives":[
				{
					"attributes":{
						"POSITION":8,
						"NORMAL":9,
						"TEXCOORD_0":10
					},
					"indices":11,
					"material":1
				}
			]
		},
		{
			"name":"CS_Screen_MFD_L",
			"primitives":[
				{
					"attributes":{
						"POSITION":12,
						"NORMAL":13,
						"TEXCOORD_0":14
					},
					"indices":11,
					"material":2
				}
			]
		},
		{
			"name":"CS_Screen_MFD_R",
			"primitives":[
				{
					"attributes":{
						"POSITION":15,
						"NORMAL":16,
						"TEXCOORD_0":17
					},
					"indices":11,
					"material":3
				}
			]
		},
		{
			"name":"CS_MFDHead",
			"primitives":[
				{
					"attributes":{
						"POSITION":18,
						"NORMAL":19,
						"TEXCOORD_0":20
					},
					"indices":21,
					"material":0
				}
			]
		},
		{
			"name":"CS_MFDTree",
			"primitives":[
				{
					"attributes":{
						"POSITION":22,
						"NORMAL":23,
						"TEXCOORD_0":24
					},
					"indices":25,
					"material":0
				}
			]
		},
		{
			"name":"CS_Side_L",
			"primitives":[
				{
					"attributes":{
						"POSITION":26,
						"NORMAL":27,
						"TEXCOORD_0":28
					},
					"indices":29,
					"material":0
				}
			]
		},
		{
			"name":"CS_Side_R",
			"primitives":[
				{
					"attributes":{
						"POSITION":30,
						"NORMAL":31,
						"TEXCOORD_0":32
					},
					"indices":33,
					"material":0
				}
			]
		},
		{
			"name":"CS_Couch",
			"primitives":[
				{
					"attributes":{
						"POSITION":34,
						"NORMAL":35,
						"TEXCOORD_0":36
					},
					"indices":37,
					"material":0
				}
			]
		},
		{
			"name":"CS_Roll",
			"primitives":[
				{
					"attributes":{
						"POSITION":38,
						"NORMAL":39,
						"TEXCOORD_0":40
					},
					"indices":41,
					"material":0
				}
			]
		},
		{
			"name":"CS_Pitch",
			"primitives":[
				{
					"attributes":{
						"POSITION":42,
						"NORMAL":43,
						"TEXCOORD_0":44
					},
					"indices":45,
					"material":0
				}
			]
		},
		{
			"name":"CS_Base",
			"primitives":[
				{
					"attributes":{
						"POSITION":46,
						"NORMAL":47,
						"TEXCOORD_0":48
					},
					"indices":49,
					"material":0
				}
			]
		}
	],
	"textures":[
		{
			"sampler":0,
			"source":0
		},
		{
			"sampler":0,
			"source":1
		}
	],
	"images":[
		{
			"mimeType":"image/png",
			"name":"CS_ORM",
			"uri":"textures/CS_ORM.png"
		},
		{
			"mimeType":"image/png",
			"name":"CS_base_color",
			"uri":"textures/CS_base_color.png"
		}
	],
	"accessors":[
		{
			"bufferView":0,
			"componentType":5126,
			"count":659,
			"max":[
				0.48526298999786377,
				0.37045425176620483,
				0.39559853076934814
			],
			"min":[
				-0.03700000047683716,
				-0.05900001525878906,
				-0.03700000047683716
			],
			"type":"VEC3"
		},
		{
			"bufferView":1,
			"componentType":5126,
			"count":659,
			"type":"VEC3"
		},
		{
			"bufferView":2,
			"componentType":5126,
			"count":659,
			"type":"VEC2"
		},
		{
			"bufferView":3,
			"componentType":5123,
			"count":1095,
			"type":"SCALAR"
		},
		{
			"bufferView":4,
			"componentType":5126,
			"count":749,
			"max":[
				0.03700000047683716,
				0.37479525804519653,
				0.38299718499183655
			],
			"min":[
				-0.47726720571517944,
				-0.05900001525878906,
				-0.03700000047683716
			],
			"type":"VEC3"
		},
		{
			"bufferView":5,
			"componentType":5126,
			"count":749,
			"type":"VEC3"
		},
		{
			"bufferView":6,
			"componentType":5126,
			"count":749,
			"type":"VEC2"
		},
		{
			"bufferView":7,
			"componentType":5123,
			"count":1137,
			"type":"SCALAR"
		},
		{
			"bufferView":8,
			"componentType":5126,
			"count":4,
			"max":[
				0.0625,
				1.453476071357727,
				0.5725345611572266
			],
			"min":[
				-0.0625,
				1.3398746252059937,
				0.5203834772109985
			],
			"type":"VEC3"
		},
		{
			"bufferView":9,
			"componentType":5126,
			"count":4,
			"type":"VEC3"
		},
		{
			"bufferView":10,
			"componentType":5126,
			"count":4,
			"type":"VEC2"
		},
		{
			"bufferView":11,
			"componentType":5123,
			"count":6,
			"type":"SCALAR"
		},
		{
			"bufferView":12,
			"componentType":5126,
			"count":4,
			"max":[
				0.24945534765720367,
				1.443394660949707,
				0.5729120969772339
			],
			"min":[
				0.11495848745107651,
				1.3301570415496826,
				0.4891092777252197
			],
			"type":"VEC3"
		},
		{
			"bufferView":13,
			"componentType":5126,
			"count":4,
			"type":"VEC3"
		},
		{
			"bufferView":14,
			"componentType":5126,
			"count":4,
			"type":"VEC2"
		},
		{
			"bufferView":15,
			"componentType":5126,
			"count":4,
			"max":[
				-0.11495848745107651,
				1.443394660949707,
				0.5729120969772339
			],
			"min":[
				-0.24945534765720367,
				1.3301570415496826,
				0.4891092777252197
			],
			"type":"VEC3"
		},
		{
			"bufferView":16,
			"componentType":5126,
			"count":4,
			"type":"VEC3"
		},
		{
			"bufferView":17,
			"componentType":5126,
			"count":4,
			"type":"VEC2"
		},
		{
			"bufferView":18,
			"componentType":5126,
			"count":1724,
			"max":[
				0.2936416268348694,
				0.2580326795578003,
				0.09666389226913452
			],
			"min":[
				-0.293641597032547,
				-0.30979204177856445,
				-0.09431570768356323
			],
			"type":"VEC3"
		},
		{
			"bufferView":19,
			"componentType":5126,
			"count":1724,
			"type":"VEC3"
		},
		{
			"bufferView":20,
			"componentType":5126,
			"count":1724,
			"type":"VEC2"
		},
		{
			"bufferView":21,
			"componentType":5123,
			"count":2781,
			"type":"SCALAR"
		},
		{
			"bufferView":22,
			"componentType":5126,
			"count":1525,
			"max":[
				0.0820000022649765,
				0.2525627613067627,
				0.07743650674819946
			],
			"min":[
				-0.05999999865889549,
				-0.15066814422607422,
				-0.15199044346809387
			],
			"type":"VEC3"
		},
		{
			"bufferView":23,
			"componentType":5126,
			"count":1525,
			"type":"VEC3"
		},
		{
			"bufferView":24,
			"componentType":5126,
			"count":1525,
			"type":"VEC2"
		},
		{
			"bufferView":25,
			"componentType":5123,
			"count":3204,
			"type":"SCALAR"
		},
		{
			"bufferView":26,
			"componentType":5126,
			"count":3310,
			"max":[
				0.04600003361701965,
				0.16935884952545166,
				0.27107861638069153
			],
			"min":[
				-0.11800000071525574,
				-0.21383881568908691,
				-0.25486844778060913
			],
			"type":"VEC3"
		},
		{
			"bufferView":27,
			"componentType":5126,
			"count":3310,
			"type":"VEC3"
		},
		{
			"bufferView":28,
			"componentType":5126,
			"count":3310,
			"type":"VEC2"
		},
		{
			"bufferView":29,
			"componentType":5123,
			"count":5250,
			"type":"SCALAR"
		},
		{
			"bufferView":30,
			"componentType":5126,
			"count":2838,
			"max":[
				0.13388961553573608,
				0.3387535810470581,
				0.27879124879837036
			],
			"min":[
				-0.04600003361701965,
				-0.21383881568908691,
				-0.2549678087234497
			],
			"type":"VEC3"
		},
		{
			"bufferView":31,
			"componentType":5126,
			"count":2838,
			"type":"VEC3"
		},
		{
			"bufferView":32,
			"componentType":5126,
			"count":2838,
			"type":"VEC2"
		},
		{
			"bufferView":33,
			"componentType":5123,
			"count":5244,
			"type":"SCALAR"
		},
		{
			"bufferView":34,
			"componentType":5126,
			"count":10422,
			"max":[
				0.30504733324050903,
				0.8986759185791016,
				0.9964073896408081
			],
			"min":[
				-0.30504733324050903,
				-0.30017876625061035,
				-0.5396307706832886
			],
			"type":"VEC3"
		},
		{
			"bufferView":35,
			"componentType":5126,
			"count":10422,
			"type":"VEC3"
		},
		{
			"bufferView":36,
			"componentType":5126,
			"count":10422,
			"type":"VEC2"
		},
		{
			"bufferView":37,
			"componentType":5123,
			"count":17727,
			"type":"SCALAR"
		},
		{
			"bufferView":38,
			"componentType":5126,
			"count":8477,
			"max":[
				0.26900002360343933,
				0.3682607412338257,
				-0.290498822927475
			],
			"min":[
				-0.26900002360343933,
				-0.36617571115493774,
				-0.6731722354888916
			],
			"type":"VEC3"
		},
		{
			"bufferView":39,
			"componentType":5126,
			"count":8477,
			"type":"VEC3"
		},
		{
			"bufferView":40,
			"componentType":5126,
			"count":8477,
			"type":"VEC2"
		},
		{
			"bufferView":41,
			"componentType":5123,
			"count":11694,
			"type":"SCALAR"
		},
		{
			"bufferView":42,
			"componentType":5126,
			"count":6124,
			"max":[
				0.7450000047683716,
				0.31499993801116943,
				0.07890890538692474
			],
			"min":[
				-0.7450000047683716,
				-0.6640000343322754,
				-0.7250000238418579
			],
			"type":"VEC3"
		},
		{
			"bufferView":43,
			"componentType":5126,
			"count":6124,
			"type":"VEC3"
		},
		{
			"bufferView":44,
			"componentType":5126,
			"count":6124,
			"type":"VEC2"
		},
		{
			"bufferView":45,
			"componentType":5123,
			"count":11793,
			"type":"SCALAR"
		},
		{
			"bufferView":46,
			"componentType":5126,
			"count":13299,
			"max":[
				0.7940000295639038,
				1.3799173831939697,
				0.73499995470047
			],
			"min":[
				-0.7910525798797607,
				0,
				-0.6460000276565552
			],
			"type":"VEC3"
		},
		{
			"bufferView":47,
			"componentType":5126,
			"count":13299,
			"type":"VEC3"
		},
		{
			"bufferView":48,
			"componentType":5126,
			"count":13299,
			"type":"VEC2"
		},
		{
			"bufferView":49,
			"componentType":5123,
			"count":25362,
			"type":"SCALAR"
		}
	],
	"bufferViews":[
		{
			"buffer":0,
			"byteLength":7908,
			"byteOffset":0,
			"target":34962
		},
		{
			"buffer":0,
			"byteLength":7908,
			"byteOffset":7908,
			"target":34962
		},
		{
			"buffer":0,
			"byteLength":5272,
			"byteOffset":15816,
			"target":34962
		},
		{
			"buffer":0,
			"byteLength":2190,
			"byteOffset":21088,
			"target":34963
		},
		{
			"buffer":0,
			"byteLength":8988,
			"byteOffset":23280,
			"target":34962
		},
		{
			"buffer":0,
			"byteLength":8988,
			"byteOffset":32268,
			"target":34962
		},
		{
			"buffer":0,
			"byteLength":5992,
			"byteOffset":41256,
			"target":34962
		},
		{
			"buffer":0,
			"byteLength":2274,
			"byteOffset":47248,
			"target":34963
		},
		{
			"buffer":0,
			"byteLength":48,
			"byteOffset":49524,
			"target":34962
		},
		{
			"buffer":0,
			"byteLength":48,
			"byteOffset":49572,
			"target":34962
		},
		{
			"buffer":0,
			"byteLength":32,
			"byteOffset":49620,
			"target":34962
		},
		{
			"buffer":0,
			"byteLength":12,
			"byteOffset":49652,
			"target":34963
		},
		{
			"buffer":0,
			"byteLength":48,
			"byteOffset":49664,
			"target":34962
		},
		{
			"buffer":0,
			"byteLength":48,
			"byteOffset":49712,
			"target":34962
		},
		{
			"buffer":0,
			"byteLength":32,
			"byteOffset":49760,
			"target":34962
		},
		{
			"buffer":0,
			"byteLength":48,
			"byteOffset":49792,
			"target":34962
		},
		{
			"buffer":0,
			"byteLength":48,
			"byteOffset":49840,
			"target":34962
		},
		{
			"buffer":0,
			"byteLength":32,
			"byteOffset":49888,
			"target":34962
		},
		{
			"buffer":0,
			"byteLength":20688,
			"byteOffset":49920,
			"target":34962
		},
		{
			"buffer":0,
			"byteLength":20688,
			"byteOffset":70608,
			"target":34962
		},
		{
			"buffer":0,
			"byteLength":13792,
			"byteOffset":91296,
			"target":34962
		},
		{
			"buffer":0,
			"byteLength":5562,
			"byteOffset":105088,
			"target":34963
		},
		{
			"buffer":0,
			"byteLength":18300,
			"byteOffset":110652,
			"target":34962
		},
		{
			"buffer":0,
			"byteLength":18300,
			"byteOffset":128952,
			"target":34962
		},
		{
			"buffer":0,
			"byteLength":12200,
			"byteOffset":147252,
			"target":34962
		},
		{
			"buffer":0,
			"byteLength":6408,
			"byteOffset":159452,
			"target":34963
		},
		{
			"buffer":0,
			"byteLength":39720,
			"byteOffset":165860,
			"target":34962
		},
		{
			"buffer":0,
			"byteLength":39720,
			"byteOffset":205580,
			"target":34962
		},
		{
			"buffer":0,
			"byteLength":26480,
			"byteOffset":245300,
			"target":34962
		},
		{
			"buffer":0,
			"byteLength":10500,
			"byteOffset":271780,
			"target":34963
		},
		{
			"buffer":0,
			"byteLength":34056,
			"byteOffset":282280,
			"target":34962
		},
		{
			"buffer":0,
			"byteLength":34056,
			"byteOffset":316336,
			"target":34962
		},
		{
			"buffer":0,
			"byteLength":22704,
			"byteOffset":350392,
			"target":34962
		},
		{
			"buffer":0,
			"byteLength":10488,
			"byteOffset":373096,
			"target":34963
		},
		{
			"buffer":0,
			"byteLength":125064,
			"byteOffset":383584,
			"target":34962
		},
		{
			"buffer":0,
			"byteLength":125064,
			"byteOffset":508648,
			"target":34962
		},
		{
			"buffer":0,
			"byteLength":83376,
			"byteOffset":633712,
			"target":34962
		},
		{
			"buffer":0,
			"byteLength":35454,
			"byteOffset":717088,
			"target":34963
		},
		{
			"buffer":0,
			"byteLength":101724,
			"byteOffset":752544,
			"target":34962
		},
		{
			"buffer":0,
			"byteLength":101724,
			"byteOffset":854268,
			"target":34962
		},
		{
			"buffer":0,
			"byteLength":67816,
			"byteOffset":955992,
			"target":34962
		},
		{
			"buffer":0,
			"byteLength":23388,
			"byteOffset":1023808,
			"target":34963
		},
		{
			"buffer":0,
			"byteLength":73488,
			"byteOffset":1047196,
			"target":34962
		},
		{
			"buffer":0,
			"byteLength":73488,
			"byteOffset":1120684,
			"target":34962
		},
		{
			"buffer":0,
			"byteLength":48992,
			"byteOffset":1194172,
			"target":34962
		},
		{
			"buffer":0,
			"byteLength":23586,
			"byteOffset":1243164,
			"target":34963
		},
		{
			"buffer":0,
			"byteLength":159588,
			"byteOffset":1266752,
			"target":34962
		},
		{
			"buffer":0,
			"byteLength":159588,
			"byteOffset":1426340,
			"target":34962
		},
		{
			"buffer":0,
			"byteLength":106392,
			"byteOffset":1585928,
			"target":34962
		},
		{
			"buffer":0,
			"byteLength":50724,
			"byteOffset":1692320,
			"target":34963
		}
	],
	"samplers":[
		{
			"magFilter":9729,
			"minFilter":9987
		}
	],
	"buffers":[
		{
			"byteLength":1743044,
			"uri":"control_seat.bin"
		}
	]
}
