{
	"asset":{
		"generator":"Khronos glTF Blender I/O v5.2.40",
		"version":"2.0"
	},
	"extensionsUsed":[
		"KHR_materials_emissive_strength"
	],
	"scene":0,
	"scenes":[
		{
			"name":"Scene",
			"nodes":[
				97
			]
		}
	],
	"nodes":[
		{
			"mesh":0,
			"name":"Shell_Avionics"
		},
		{
			"children":[
				0
			],
			"name":"Deck_Avionics"
		},
		{
			"extras":{
				"export_kind":"interactive",
				"prop":"Crawl_Hatch_Lid",
				"joint":"hinge",
				"axis":[
					1.0,
					0.0,
					-0.0
				],
				"close_deg":-90.0
			},
			"mesh":1,
			"name":"Crawl_Hatch_Lid_1",
			"rotation":[
				0,
				-0.38268372416496277,
				0,
				0.9238794445991516
			],
			"translation":[
				0.8909544944763184,
				10.5,
				1.400071382522583
			]
		},
		{
			"extras":{
				"export_kind":"screen"
			},
			"mesh":2,
			"name":"Screen_D1_1",
			"translation":[
				1.3859294652938843,
				12.15000057220459,
				-1.8101937770843506
			]
		},
		{
			"extras":{
				"export_kind":"screen"
			},
			"mesh":3,
			"name":"Screen_D1_2",
			"translation":[
				-1.5839192867279053,
				12.350001335144043,
				1.5839194059371948
			]
		},
		{
			"extras":{
				"export_kind":"screen"
			},
			"mesh":4,
			"name":"Screen_D1_3",
			"translation":[
				-1.6829142570495605,
				11.779998779296875,
				-1.5414928197860718
			]
		},
		{
			"extras":{
				"export_kind":"screen"
			},
			"mesh":5,
			"name":"Screen_D1_4",
			"translation":[
				1.5414928197860718,
				11.779998779296875,
				1.682914137840271
			]
		},
		{
			"mesh":6,
			"name":"Shell_D1"
		},
		{
			"children":[
				2,
				3,
				4,
				5,
				6,
				7
			],
			"name":"Deck_D1"
		},
		{
			"extras":{
				"export_kind":"prop",
				"prop":"Crate_Stack"
			},
			"mesh":7,
			"name":"Crate_Stack_1",
			"translation":[
				-2.0999999046325684,
				13.399999618530273,
				1.9500000476837158
			]
		},
		{
			"extras":{
				"export_kind":"prop",
				"prop":"Crate_Stack"
			},
			"mesh":7,
			"name":"Crate_Stack_2",
			"translation":[
				-2.0999999046325684,
				13.399999618530273,
				-1.9500000476837158
			]
		},
		{
			"extras":{
				"export_kind":"interactive",
				"prop":"Ladder_Retract",
				"joint":"slide",
				"axis":[
					0.0,
					-1.0,
					-0.0
				],
				"close_m":2.799999999999999
			},
			"mesh":8,
			"name":"Ladder_Retract_1",
			"translation":[
				-0.5199999809265137,
				13.399999618530273,
				0
			]
		},
		{
			"extras":{
				"export_kind":"screen"
			},
			"mesh":9,
			"name":"Screen_D2_1",
			"translation":[
				1.5625,
				14.724998474121094,
				2.90000057220459
			]
		},
		{
			"extras":{
				"export_kind":"screen"
			},
			"mesh":10,
			"name":"Screen_D2_2",
			"translation":[
				2.9000003337860107,
				14.75,
				-1.749999761581421
			]
		},
		{
			"mesh":11,
			"name":"Shell_D2"
		},
		{
			"extras":{
				"export_kind":"interactive",
				"prop":"Sliding_Hatch",
				"joint":"slide",
				"axis":[
					0.0,
					0.0,
					1.0
				],
				"close_m":1.5
			},
			"mesh":12,
			"name":"Sliding_Hatch_1",
			"translation":[
				0,
				13.210000038146973,
				-1.5
			]
		},
		{
			"extras":{
				"export_kind":"prop",
				"prop":"Stores_Lockers"
			},
			"mesh":13,
			"name":"Stores_Lockers_1",
			"translation":[
				0,
				13.399999618530273,
				-2.9000000953674316
			]
		},
		{
			"extras":{
				"export_kind":"prop",
				"prop":"Stores_Lockers"
			},
			"mesh":13,
			"name":"Stores_Lockers_2",
			"rotation":[
				0,
				1,
				0,
				7.549790126404332e-08
			],
			"translation":[
				0,
				13.399999618530273,
				2.9000000953674316
			]
		},
		{
			"extras":{
				"export_kind":"prop",
				"prop":"Tie_Down"
			},
			"mesh":14,
			"name":"Tie_Down_1",
			"translation":[
				-2.9000000953674316,
				13.399999618530273,
				1.7000000476837158
			]
		},
		{
			"extras":{
				"export_kind":"prop",
				"prop":"Tie_Down"
			},
			"mesh":14,
			"name":"Tie_Down_2",
			"translation":[
				-2.9000000953674316,
				13.399999618530273,
				-1.7000000476837158
			]
		},
		{
			"extras":{
				"export_kind":"prop",
				"prop":"Tie_Down"
			},
			"mesh":14,
			"name":"Tie_Down_3",
			"translation":[
				-1.7000000476837158,
				13.399999618530273,
				1.7000000476837158
			]
		},
		{
			"extras":{
				"export_kind":"prop",
				"prop":"Tie_Down"
			},
			"mesh":14,
			"name":"Tie_Down_4",
			"translation":[
				-1.7000000476837158,
				13.399999618530273,
				-1.7000000476837158
			]
		},
		{
			"extras":{
				"export_kind":"prop",
				"prop":"Tie_Down"
			},
			"mesh":14,
			"name":"Tie_Down_5",
			"translation":[
				1.2000000476837158,
				13.399999618530273,
				1.7000000476837158
			]
		},
		{
			"extras":{
				"export_kind":"prop",
				"prop":"Tie_Down"
			},
			"mesh":14,
			"name":"Tie_Down_6",
			"translation":[
				1.2000000476837158,
				13.399999618530273,
				-1.7000000476837158
			]
		},
		{
			"extras":{
				"export_kind":"prop",
				"prop":"Tie_Down"
			},
			"mesh":14,
			"name":"Tie_Down_7",
			"translation":[
				2.4000000953674316,
				13.399999618530273,
				1.7000000476837158
			]
		},
		{
			"extras":{
				"export_kind":"prop",
				"prop":"Tie_Down"
			},
			"mesh":14,
			"name":"Tie_Down_8",
			"translation":[
				2.4000000953674316,
				13.399999618530273,
				-1.7000000476837158
			]
		},
		{
			"children":[
				9,
				10,
				11,
				12,
				13,
				14,
				15,
				16,
				17,
				18,
				19,
				20,
				21,
				22,
				23,
				24,
				25
			],
			"name":"Deck_D2"
		},
		{
			"extras":{
				"export_kind":"prop",
				"prop":"Bunk_Rack"
			},
			"mesh":15,
			"name":"Bunk_Rack_1",
			"translation":[
				0,
				16.200000762939453,
				-2.8499999046325684
			]
		},
		{
			"extras":{
				"export_kind":"prop",
				"prop":"Bunk_Rack"
			},
			"mesh":15,
			"name":"Bunk_Rack_2",
			"rotation":[
				0,
				1,
				0,
				7.549790126404332e-08
			],
			"translation":[
				0,
				16.200000762939453,
				2.8499999046325684
			]
		},
		{
			"extras":{
				"export_kind":"screen"
			},
			"mesh":16,
			"name":"Neon_Tank_Aux_1_Screen"
		},
		{
			"children":[
				29
			],
			"extras":{
				"export_kind":"prop",
				"prop":"Neon_Tank_Aux"
			},
			"mesh":17,
			"name":"Neon_Tank_Aux_1",
			"rotation":[
				0,
				0.3826834261417389,
				0,
				0.9238795638084412
			],
			"translation":[
				1.840000033378601,
				16.200000762939453,
				-1.840000033378601
			]
		},
		{
			"extras":{
				"export_kind":"screen"
			},
			"mesh":16,
			"name":"Neon_Tank_Aux_2_Screen"
		},
		{
			"children":[
				31
			],
			"extras":{
				"export_kind":"prop",
				"prop":"Neon_Tank_Aux"
			},
			"mesh":17,
			"name":"Neon_Tank_Aux_2",
			"rotation":[
				0,
				0.9238795638084412,
				0,
				0.38268333673477173
			],
			"translation":[
				-1.840000033378601,
				16.200000762939453,
				-1.840000033378601
			]
		},
		{
			"extras":{
				"export_kind":"screen"
			},
			"mesh":16,
			"name":"Neon_Tank_Aux_3_Screen"
		},
		{
			"children":[
				33
			],
			"extras":{
				"export_kind":"prop",
				"prop":"Neon_Tank_Aux"
			},
			"mesh":17,
			"name":"Neon_Tank_Aux_3",
			"rotation":[
				0,
				-0.9238795638084412,
				0,
				0.3826834261417389
			],
			"translation":[
				-1.840000033378601,
				16.200000762939453,
				1.840000033378601
			]
		},
		{
			"extras":{
				"export_kind":"screen"
			},
			"mesh":16,
			"name":"Neon_Tank_Aux_4_Screen"
		},
		{
			"children":[
				35
			],
			"extras":{
				"export_kind":"prop",
				"prop":"Neon_Tank_Aux"
			},
			"mesh":17,
			"name":"Neon_Tank_Aux_4",
			"rotation":[
				0,
				-0.3826834261417389,
				0,
				0.9238795638084412
			],
			"translation":[
				1.840000033378601,
				16.200000762939453,
				1.840000033378601
			]
		},
		{
			"extras":{
				"export_kind":"screen"
			},
			"mesh":18,
			"name":"Screen_D3_1",
			"translation":[
				-2.1000003814697266,
				17.700000762939453,
				0.8500000834465027
			]
		},
		{
			"mesh":19,
			"name":"Shell_D3"
		},
		{
			"extras":{
				"export_kind":"interactive",
				"prop":"Sliding_Hatch",
				"joint":"slide",
				"axis":[
					0.0,
					0.0,
					-1.0
				],
				"close_m":1.5
			},
			"mesh":12,
			"name":"Sliding_Hatch_2",
			"translation":[
				0,
				16.139999389648438,
				1.5
			]
		},
		{
			"children":[
				27,
				28,
				30,
				32,
				34,
				36,
				37,
				38,
				39
			],
			"name":"Deck_D3"
		},
		{
			"extras":{
				"export_kind":"interactive",
				"prop":"Airlock_Inner_Leaf",
				"joint":"slide",
				"axis":[
					1.0,
					0.0,
					-0.0
				],
				"close_m":0.45
			},
			"mesh":20,
			"name":"Airlock_Inner_Leaf_1",
			"translation":[
				-0.8500000238418579,
				19,
				1.5499999523162842
			]
		},
		{
			"extras":{
				"export_kind":"interactive",
				"prop":"Airlock_Inner_Leaf",
				"joint":"slide",
				"axis":[
					-1.0,
					0.0,
					-0.0
				],
				"close_m":0.45
			},
			"mesh":20,
			"name":"Airlock_Inner_Leaf_2",
			"translation":[
				0.8500000238418579,
				19,
				1.5499999523162842
			]
		},
		{
			"extras":{
				"export_kind":"interactive",
				"prop":"Pressure_Hatch",
				"joint":"hinge",
				"axis":[
					0.0,
					0.0,
					-1.0
				],
				"close_deg":-90.0
			},
			"mesh":21,
			"name":"Pressure_Hatch_1",
			"translation":[
				0.699999988079071,
				19.131999969482422,
				0
			]
		},
		{
			"extras":{
				"export_kind":"prop",
				"prop":"RCS_Tank"
			},
			"mesh":22,
			"name":"RCS_Tank_1",
			"rotation":[
				0,
				0.3826834261417389,
				0,
				0.9238795638084412
			],
			"translation":[
				2.049999952316284,
				21.200000762939453,
				-2.049999952316284
			]
		},
		{
			"extras":{
				"export_kind":"prop",
				"prop":"RCS_Tank"
			},
			"mesh":22,
			"name":"RCS_Tank_2",
			"rotation":[
				0,
				0.9238795638084412,
				0,
				0.38268333673477173
			],
			"translation":[
				-2.049999952316284,
				21.200000762939453,
				-2.049999952316284
			]
		},
		{
			"extras":{
				"export_kind":"prop",
				"prop":"RCS_Tank"
			},
			"mesh":22,
			"name":"RCS_Tank_3",
			"rotation":[
				0,
				-0.9238795638084412,
				0,
				0.3826834261417389
			],
			"translation":[
				-2.049999952316284,
				21.200000762939453,
				2.049999952316284
			]
		},
		{
			"extras":{
				"export_kind":"prop",
				"prop":"RCS_Tank"
			},
			"mesh":22,
			"name":"RCS_Tank_4",
			"rotation":[
				0,
				-0.3826834261417389,
				0,
				0.9238795638084412
			],
			"translation":[
				2.049999952316284,
				21.200000762939453,
				2.049999952316284
			]
		},
		{
			"extras":{
				"export_kind":"screen"
			},
			"mesh":23,
			"name":"Screen_D4_1",
			"translation":[
				0.8999998569488525,
				20.42000389099121,
				1.75
			]
		},
		{
			"extras":{
				"export_kind":"screen"
			},
			"mesh":24,
			"name":"Screen_D4_2",
			"translation":[
				1.2000000476837158,
				20.400001525878906,
				-2.000000238418579
			]
		},
		{
			"extras":{
				"export_kind":"screen"
			},
			"mesh":25,
			"name":"Screen_D4_3",
			"translation":[
				2.8399999141693115,
				20.550003051757812,
				0.6000000238418579
			]
		},
		{
			"extras":{
				"export_kind":"screen"
			},
			"mesh":26,
			"name":"Screen_D4_4",
			"translation":[
				-2.6599998474121094,
				20.299999237060547,
				0
			]
		},
		{
			"mesh":27,
			"name":"Shell_D4"
		},
		{
			"extras":{
				"export_kind":"prop",
				"prop":"Stool"
			},
			"mesh":28,
			"name":"Stool_1",
			"translation":[
				1.2999999523162842,
				19,
				0.3499999940395355
			]
		},
		{
			"extras":{
				"export_kind":"prop",
				"prop":"Stool"
			},
			"mesh":28,
			"name":"Stool_2",
			"translation":[
				1.2999999523162842,
				19,
				-0.3499999940395355
			]
		},
		{
			"extras":{
				"export_kind":"prop",
				"prop":"Stool"
			},
			"mesh":28,
			"name":"Stool_3",
			"translation":[
				2.4000000953674316,
				19,
				0.3499999940395355
			]
		},
		{
			"extras":{
				"export_kind":"prop",
				"prop":"Stool"
			},
			"mesh":28,
			"name":"Stool_4",
			"translation":[
				2.4000000953674316,
				19,
				-0.3499999940395355
			]
		},
		{
			"children":[
				41,
				42,
				43,
				44,
				45,
				46,
				47,
				48,
				49,
				50,
				51,
				52,
				53,
				54,
				55,
				56
			],
			"name":"Deck_D4"
		},
		{
			"extras":{
				"export_kind":"prop",
				"prop":"PDC_Fore_Magazine"
			},
			"mesh":29,
			"name":"PDC_Fore_Magazine_1",
			"rotation":[
				0,
				0.3826834261417389,
				0,
				0.9238795638084412
			],
			"translation":[
				1.5556349754333496,
				23.200000762939453,
				-1.5556349754333496
			]
		},
		{
			"extras":{
				"export_kind":"prop",
				"prop":"PDC_Fore_Magazine"
			},
			"mesh":29,
			"name":"PDC_Fore_Magazine_2",
			"rotation":[
				0,
				-0.9238795638084412,
				0,
				0.38268333673477173
			],
			"translation":[
				-1.5556349754333496,
				23.200000762939453,
				1.5556349754333496
			]
		},
		{
			"extras":{
				"export_kind":"interactive",
				"prop":"Pressure_Hatch",
				"joint":"hinge",
				"axis":[
					0.0,
					0.0,
					-1.0
				],
				"close_deg":-90.0
			},
			"mesh":21,
			"name":"Pressure_Hatch_2",
			"translation":[
				0.699999988079071,
				22.131999969482422,
				0
			]
		},
		{
			"extras":{
				"export_kind":"screen"
			},
			"mesh":30,
			"name":"Screen_D5_1",
			"translation":[
				0.5074999928474426,
				23.27499771118164,
				-1.2999999523162842
			]
		},
		{
			"extras":{
				"export_kind":"screen"
			},
			"mesh":31,
			"name":"Screen_D5_2",
			"translation":[
				1.5344218015670776,
				23.200002670288086,
				1.5344218015670776
			]
		},
		{
			"extras":{
				"export_kind":"screen"
			},
			"mesh":32,
			"name":"Screen_D5_3",
			"translation":[
				1.9500000476837158,
				23.524999618530273,
				-0.5225000381469727
			]
		},
		{
			"extras":{
				"export_kind":"screen"
			},
			"mesh":33,
			"name":"Screen_D5_4",
			"translation":[
				0.6250001192092896,
				23.5,
				2.194999933242798
			]
		},
		{
			"mesh":34,
			"name":"Shell_D5"
		},
		{
			"children":[
				58,
				59,
				60,
				61,
				62,
				63,
				64,
				65
			],
			"name":"Deck_D5"
		},
		{
			"extras":{
				"export_kind":"screen",
				"screen":"dome",
				"fov_deg":[
					120.0,
					60.0
				],
				"el_deg":[
					-15.0,
					45.0
				],
				"radius_m":0.9,
				"eye":[
					0.0,
					0.632,
					-0.091
				],
				"uv":"u: azimuth, viewer's left to right; v: elevation, bottom to top"
			},
			"mesh":35,
			"name":"Dome_Pilot_Screen"
		},
		{
			"children":[
				67
			],
			"extras":{
				"export_kind":"interactive",
				"prop":"Bridge_Dome",
				"joint":"hinge",
				"axis":[
					1.0,
					0.0,
					-0.0
				],
				"open_deg":-64.0,
				"follows":"Seat_Pilot"
			},
			"mesh":36,
			"name":"Dome_Pilot",
			"translation":[
				0,
				26.079999923706055,
				1.5500000715255737
			]
		},
		{
			"extras":{
				"export_kind":"screen",
				"screen":"dome",
				"fov_deg":[
					120.0,
					60.0
				],
				"el_deg":[
					-15.0,
					45.0
				],
				"radius_m":0.9,
				"eye":[
					0.0,
					0.632,
					-0.091
				],
				"uv":"u: azimuth, viewer's left to right; v: elevation, bottom to top"
			},
			"mesh":35,
			"name":"Dome_Tactical_Screen"
		},
		{
			"children":[
				69
			],
			"extras":{
				"export_kind":"interactive",
				"prop":"Bridge_Dome",
				"joint":"hinge",
				"axis":[
					1.0,
					0.0,
					-0.0
				],
				"open_deg":-64.0,
				"follows":"Seat_Tactical"
			},
			"mesh":36,
			"name":"Dome_Tactical",
			"rotation":[
				0,
				1,
				0,
				7.549790126404332e-08
			],
			"translation":[
				0,
				26.079999923706055,
				-1.5500000715255737
			]
		},
		{
			"extras":{
				"export_kind":"interactive",
				"prop":"EVA_Inner_Hatch",
				"joint":"hinge",
				"axis":[
					0.0,
					1.0,
					-0.0
				],
				"open_deg":-90.0
			},
			"mesh":37,
			"name":"EVA_Inner_Hatch_1",
			"translation":[
				1.75,
				25,
				0.3499999940395355
			]
		},
		{
			"extras":{
				"export_kind":"interactive",
				"prop":"Pressure_Hatch",
				"joint":"hinge",
				"axis":[
					0.0,
					0.0,
					-1.0
				],
				"close_deg":-90.0
			},
			"mesh":21,
			"name":"Pressure_Hatch_3",
			"translation":[
				0.699999988079071,
				25.131999969482422,
				0
			]
		},
		{
			"extras":{
				"placement":true,
				"asset":"control_seat.gltf",
				"role":"pilot"
			},
			"name":"Seat_Pilot",
			"translation":[
				0,
				25,
				1.600000023841858
			]
		},
		{
			"extras":{
				"placement":true,
				"asset":"control_seat.gltf",
				"role":"tactical"
			},
			"name":"Seat_Tactical",
			"rotation":[
				0,
				1,
				0,
				7.549790126404332e-08
			],
			"translation":[
				0,
				25,
				-1.600000023841858
			]
		},
		{
			"mesh":38,
			"name":"Shell_D6"
		},
		{
			"children":[
				68,
				70,
				71,
				72,
				73,
				74,
				75
			],
			"name":"Deck_D6"
		},
		{
			"extras":{
				"export_kind":"prop",
				"prop":"PDC_Aft_Magazines"
			},
			"mesh":39,
			"name":"PDC_Aft_Magazines_1",
			"rotation":[
				0,
				0.9238795638084412,
				0,
				0.38268333673477173
			],
			"translation":[
				-1.4495688676834106,
				6.75,
				-1.4495688676834106
			]
		},
		{
			"extras":{
				"export_kind":"prop",
				"prop":"PDC_Aft_Magazines"
			},
			"mesh":39,
			"name":"PDC_Aft_Magazines_2",
			"rotation":[
				0,
				-0.38268372416496277,
				0,
				0.9238794445991516
			],
			"translation":[
				1.4495688676834106,
				6.75,
				1.4495688676834106
			]
		},
		{
			"extras":{
				"export_kind":"prop",
				"prop":"Pellet_Canister_Short"
			},
			"mesh":40,
			"name":"Pellet_Canister_Short_1",
			"translation":[
				-2.404162883758545,
				7.360000133514404,
				-1.272792100906372
			]
		},
		{
			"extras":{
				"export_kind":"prop",
				"prop":"Pellet_Canister_Short"
			},
			"mesh":40,
			"name":"Pellet_Canister_Short_2",
			"translation":[
				2.404162883758545,
				7.360000133514404,
				1.272792100906372
			]
		},
		{
			"extras":{
				"export_kind":"prop",
				"prop":"Pellet_Canister_Tall"
			},
			"mesh":41,
			"name":"Pellet_Canister_Tall_1",
			"translation":[
				2.404162883758545,
				6.050000190734863,
				-1.272792100906372
			]
		},
		{
			"extras":{
				"export_kind":"prop",
				"prop":"Pellet_Canister_Tall"
			},
			"mesh":41,
			"name":"Pellet_Canister_Tall_2",
			"translation":[
				1.272792100906372,
				6.050000190734863,
				-2.404162883758545
			]
		},
		{
			"extras":{
				"export_kind":"prop",
				"prop":"Pellet_Canister_Tall"
			},
			"mesh":41,
			"name":"Pellet_Canister_Tall_3",
			"translation":[
				-2.404162883758545,
				6.050000190734863,
				1.272792100906372
			]
		},
		{
			"extras":{
				"export_kind":"prop",
				"prop":"Pellet_Canister_Tall"
			},
			"mesh":41,
			"name":"Pellet_Canister_Tall_4",
			"translation":[
				-1.272792100906372,
				6.050000190734863,
				2.404162883758545
			]
		},
		{
			"extras":{
				"export_kind":"screen"
			},
			"mesh":42,
			"name":"Screen_Drive_1",
			"translation":[
				0.8799998760223389,
				9.09000015258789,
				-2.8349997997283936
			]
		},
		{
			"mesh":43,
			"name":"Shell_Drive"
		},
		{
			"children":[
				77,
				78,
				79,
				80,
				81,
				82,
				83,
				84,
				85,
				86
			],
			"name":"Deck_Drive"
		},
		{
			"extras":{
				"physics":"convex_hull"
			},
			"mesh":44,
			"name":"VOL_Avionics",
			"translation":[
				0,
				28.389999389648438,
				0
			]
		},
		{
			"extras":{
				"physics":"convex_hull"
			},
			"mesh":45,
			"name":"VOL_D1",
			"translation":[
				0,
				11.649998664855957,
				0
			]
		},
		{
			"extras":{
				"physics":"convex_hull"
			},
			"mesh":46,
			"name":"VOL_D2_D4",
			"translation":[
				0,
				17.575000762939453,
				0
			]
		},
		{
			"extras":{
				"physics":"convex_hull"
			},
			"mesh":47,
			"name":"VOL_D5_D6",
			"translation":[
				0,
				25.349998474121094,
				0
			]
		},
		{
			"extras":{
				"physics":"box",
				"half_extents":[
					0.425,
					1.285,
					1.62
				]
			},
			"mesh":48,
			"name":"VOL_Door_Cargo",
			"translation":[
				3.674999952316284,
				14.684999465942383,
				0
			]
		},
		{
			"extras":{
				"physics":"box",
				"half_extents":[
					0.67,
					0.98,
					0.425
				]
			},
			"mesh":49,
			"name":"VOL_Door_Docking",
			"translation":[
				0,
				20.299999237060547,
				3.674999952316284
			]
		},
		{
			"extras":{
				"physics":"convex_hull"
			},
			"mesh":50,
			"name":"VOL_Drive",
			"translation":[
				0,
				8.05250072479248,
				0
			]
		},
		{
			"extras":{
				"physics":"box",
				"half_extents":[
					0.45,
					0.71,
					0.49
				]
			},
			"mesh":51,
			"name":"VOL_Hatch_EVA",
			"translation":[
				3,
				26.5,
				0
			]
		},
		{
			"extras":{
				"physics":"convex_hull"
			},
			"mesh":52,
			"name":"VOL_Shoulder",
			"translation":[
				0,
				22.35000228881836,
				0
			]
		},
		{
			"children":[
				1,
				8,
				26,
				40,
				57,
				66,
				76,
				87,
				88,
				89,
				90,
				91,
				92,
				93,
				94,
				95,
				96
			],
			"name":"TorchShip_Interior"
		}
	],
	"materials":[
		{
			"emissiveFactor":[
				1,
				1,
				1
			],
			"emissiveTexture":{
				"index":0
			},
			"extensions":{
				"KHR_materials_emissive_strength":{
					"emissiveStrength":6
				}
			},
			"name":"M_Int_Avionics",
			"normalTexture":{
				"index":1
			},
			"occlusionTexture":{
				"index":2
			},
			"pbrMetallicRoughness":{
				"baseColorTexture":{
					"index":3
				},
				"metallicRoughnessTexture":{
					"index":2
				}
			}
		},
		{
			"emissiveFactor":[
				1,
				1,
				1
			],
			"emissiveTexture":{
				"index":4
			},
			"extensions":{
				"KHR_materials_emissive_strength":{
					"emissiveStrength":6
				}
			},
			"name":"M_Int_Props",
			"normalTexture":{
				"index":5
			},
			"occlusionTexture":{
				"index":6
			},
			"pbrMetallicRoughness":{
				"baseColorTexture":{
					"index":7
				},
				"metallicRoughnessTexture":{
					"index":6
				}
			}
		},
		{
			"emissiveFactor":[
				0.22222223142047012,
				0.6666667108182566,
				1
			],
			"extensions":{
				"KHR_materials_emissive_strength":{
					"emissiveStrength":2.6999999284744263
				}
			},
			"name":"M_Int_Screen",
			"pbrMetallicRoughness":{
				"baseColorFactor":[
					0.20000000298023224,
					0.6000000238418579,
					0.8999999761581421,
					1
				],
				"metallicFactor":0,
				"roughnessFactor":0.20000000298023224
			}
		},
		{
			"emissiveFactor":[
				1,
				1,
				1
			],
			"emissiveTexture":{
				"index":8
			},
			"extensions":{
				"KHR_materials_emissive_strength":{
					"emissiveStrength":6
				}
			},
			"name":"M_Int_D1",
			"normalTexture":{
				"index":9
			},
			"occlusionTexture":{
				"index":10
			},
			"pbrMetallicRoughness":{
				"baseColorTexture":{
					"index":11
				},
				"metallicRoughnessTexture":{
					"index":10
				}
			}
		},
		{
			"emissiveFactor":[
				1,
				1,
				1
			],
			"emissiveTexture":{
				"index":12
			},
			"extensions":{
				"KHR_materials_emissive_strength":{
					"emissiveStrength":6
				}
			},
			"name":"M_Int_D2",
			"normalTexture":{
				"index":13
			},
			"occlusionTexture":{
				"index":14
			},
			"pbrMetallicRoughness":{
				"baseColorTexture":{
					"index":15
				},
				"metallicRoughnessTexture":{
					"index":14
				}
			}
		},
		{
			"emissiveFactor":[
				1,
				1,
				1
			],
			"emissiveTexture":{
				"index":16
			},
			"extensions":{
				"KHR_materials_emissive_strength":{
					"emissiveStrength":6
				}
			},
			"name":"M_Int_D3",
			"normalTexture":{
				"index":17
			},
			"occlusionTexture":{
				"index":18
			},
			"pbrMetallicRoughness":{
				"baseColorTexture":{
					"index":19
				},
				"metallicRoughnessTexture":{
					"index":18
				}
			}
		},
		{
			"emissiveFactor":[
				1,
				1,
				1
			],
			"emissiveTexture":{
				"index":20
			},
			"extensions":{
				"KHR_materials_emissive_strength":{
					"emissiveStrength":6
				}
			},
			"name":"M_Int_D4",
			"normalTexture":{
				"index":21
			},
			"occlusionTexture":{
				"index":22
			},
			"pbrMetallicRoughness":{
				"baseColorTexture":{
					"index":23
				},
				"metallicRoughnessTexture":{
					"index":22
				}
			}
		},
		{
			"emissiveFactor":[
				1,
				1,
				1
			],
			"emissiveTexture":{
				"index":24
			},
			"extensions":{
				"KHR_materials_emissive_strength":{
					"emissiveStrength":6
				}
			},
			"name":"M_Int_D5",
			"normalTexture":{
				"index":25
			},
			"occlusionTexture":{
				"index":26
			},
			"pbrMetallicRoughness":{
				"baseColorTexture":{
					"index":27
				},
				"metallicRoughnessTexture":{
					"index":26
				}
			}
		},
		{
			"emissiveFactor":[
				1,
				1,
				1
			],
			"emissiveTexture":{
				"index":28
			},
			"extensions":{
				"KHR_materials_emissive_strength":{
					"emissiveStrength":6
				}
			},
			"name":"M_Int_D6",
			"normalTexture":{
				"index":29
			},
			"occlusionTexture":{
				"index":30
			},
			"pbrMetallicRoughness":{
				"baseColorTexture":{
					"index":31
				},
				"metallicRoughnessTexture":{
					"index":30
				}
			}
		},
		{
			"emissiveFactor":[
				1,
				1,
				1
			],
			"emissiveTexture":{
				"index":32
			},
			"extensions":{
				"KHR_materials_emissive_strength":{
					"emissiveStrength":6
				}
			},
			"name":"M_Int_Drive",
			"normalTexture":{
				"index":33
			},
			"occlusionTexture":{
				"index":34
			},
			"pbrMetallicRoughness":{
				"baseColorTexture":{
					"index":35
				},
				"metallicRoughnessTexture":{
					"index":34
				}
			}
		}
	],
	"meshes":[
		{
			"name":"Shell_Avionics",
			"primitives":[
				{
					"attributes":{
						"POSITION":0,
						"NORMAL":1,
						"TEXCOORD_0":2,
						"TANGENT":3
					},
					"indices":4,
					"material":0
				}
			]
		},
		{
			"name":"Prop_Crawl_Hatch_Lid",
			"primitives":[
				{
					"attributes":{
						"POSITION":5,
						"NORMAL":6,
						"TEXCOORD_0":7,
						"TANGENT":8
					},
					"indices":9,
					"material":1
				}
			]
		},
		{
			"name":"Screen_D1_1",
			"primitives":[
				{
					"attributes":{
						"POSITION":10,
						"NORMAL":11,
						"TEXCOORD_0":12,
						"TANGENT":13
					},
					"indices":14,
					"material":2
				}
			]
		},
		{
			"name":"Screen_D1_2",
			"primitives":[
				{
					"attributes":{
						"POSITION":15,
						"NORMAL":16,
						"TEXCOORD_0":17,
						"TANGENT":18
					},
					"indices":19,
					"material":2
				}
			]
		},
		{
			"name":"Screen_D1_3",
			"primitives":[
				{
					"attributes":{
						"POSITION":20,
						"NORMAL":21,
						"TEXCOORD_0":22,
						"TANGENT":23
					},
					"indices":24,
					"material":2
				}
			]
		},
		{
			"name":"Screen_D1_4",
			"primitives":[
				{
					"attributes":{
						"POSITION":25,
						"NORMAL":26,
						"TEXCOORD_0":27,
						"TANGENT":28
					},
					"indices":29,
					"material":2
				}
			]
		},
		{
			"name":"Shell_D1",
			"primitives":[
				{
					"attributes":{
						"POSITION":30,
						"NORMAL":31,
						"TEXCOORD_0":32,
						"TANGENT":33
					},
					"indices":34,
					"material":3
				}
			]
		},
		{
			"name":"Prop_Crate_Stack",
			"primitives":[
				{
					"attributes":{
						"POSITION":35,
						"NORMAL":36,
						"TEXCOORD_0":37,
						"TANGENT":38
					},
					"indices":39,
					"material":1
				}
			]
		},
		{
			"name":"Prop_Ladder_Retract",
			"primitives":[
				{
					"attributes":{
						"POSITION":40,
						"NORMAL":41,
						"TEXCOORD_0":42,
						"TANGENT":43
					},
					"indices":44,
					"material":1
				}
			]
		},
		{
			"name":"Screen_D2_1",
			"primitives":[
				{
					"attributes":{
						"POSITION":45,
						"NORMAL":46,
						"TEXCOORD_0":47,
						"TANGENT":48
					},
					"indices":49,
					"material":2
				}
			]
		},
		{
			"name":"Screen_D2_2",
			"primitives":[
				{
					"attributes":{
						"POSITION":50,
						"NORMAL":51,
						"TEXCOORD_0":52,
						"TANGENT":53
					},
					"indices":54,
					"material":2
				}
			]
		},
		{
			"name":"Shell_D2",
			"primitives":[
				{
					"attributes":{
						"POSITION":55,
						"NORMAL":56,
						"TEXCOORD_0":57,
						"TANGENT":58
					},
					"indices":59,
					"material":4
				}
			]
		},
		{
			"name":"Prop_Sliding_Hatch",
			"primitives":[
				{
					"attributes":{
						"POSITION":60,
						"NORMAL":61,
						"TEXCOORD_0":62,
						"TANGENT":63
					},
					"indices":64,
					"material":1
				}
			]
		},
		{
			"name":"Prop_Stores_Lockers",
			"primitives":[
				{
					"attributes":{
						"POSITION":65,
						"NORMAL":66,
						"TEXCOORD_0":67,
						"TANGENT":68
					},
					"indices":69,
					"material":1
				}
			]
		},
		{
			"name":"Prop_Tie_Down",
			"primitives":[
				{
					"attributes":{
						"POSITION":70,
						"NORMAL":71,
						"TEXCOORD_0":72,
						"TANGENT":73
					},
					"indices":74,
					"material":1
				}
			]
		},
		{
			"name":"Prop_Bunk_Rack",
			"primitives":[
				{
					"attributes":{
						"POSITION":75,
						"NORMAL":76,
						"TEXCOORD_0":77,
						"TANGENT":78
					},
					"indices":79,
					"material":1
				}
			]
		},
		{
			"name":"Screen_Neon_Tank_Aux_1",
			"primitives":[
				{
					"attributes":{
						"POSITION":80,
						"NORMAL":81,
						"TEXCOORD_0":82,
						"TANGENT":83
					},
					"indices":84,
					"material":2
				}
			]
		},
		{
			"name":"Prop_Neon_Tank_Aux",
			"primitives":[
				{
					"attributes":{
						"POSITION":85,
						"NORMAL":86,
						"TEXCOORD_0":87,
						"TANGENT":88
					},
					"indices":89,
					"material":1
				}
			]
		},
		{
			"name":"Screen_D3_1",
			"primitives":[
				{
					"attributes":{
						"POSITION":90,
						"NORMAL":91,
						"TEXCOORD_0":92,
						"TANGENT":93
					},
					"indices":94,
					"material":2
				}
			]
		},
		{
			"name":"Shell_D3",
			"primitives":[
				{
					"attributes":{
						"POSITION":95,
						"NORMAL":96,
						"TEXCOORD_0":97,
						"TANGENT":98
					},
					"indices":99,
					"material":5
				}
			]
		},
		{
			"name":"Prop_Airlock_Inner_Leaf",
			"primitives":[
				{
					"attributes":{
						"POSITION":100,
						"NORMAL":101,
						"TEXCOORD_0":102,
						"TANGENT":103
					},
					"indices":104,
					"material":1
				}
			]
		},
		{
			"name":"Prop_Pressure_Hatch",
			"primitives":[
				{
					"attributes":{
						"POSITION":105,
						"NORMAL":106,
						"TEXCOORD_0":107,
						"TANGENT":108
					},
					"indices":109,
					"material":1
				}
			]
		},
		{
			"name":"Prop_RCS_Tank",
			"primitives":[
				{
					"attributes":{
						"POSITION":110,
						"NORMAL":111,
						"TEXCOORD_0":112,
						"TANGENT":113
					},
					"indices":114,
					"material":1
				}
			]
		},
		{
			"name":"Screen_D4_1",
			"primitives":[
				{
					"attributes":{
						"POSITION":115,
						"NORMAL":116,
						"TEXCOORD_0":117,
						"TANGENT":118
					},
					"indices":119,
					"material":2
				}
			]
		},
		{
			"name":"Screen_D4_2",
			"primitives":[
				{
					"attributes":{
						"POSITION":120,
						"NORMAL":121,
						"TEXCOORD_0":122,
						"TANGENT":123
					},
					"indices":124,
					"material":2
				}
			]
		},
		{
			"name":"Screen_D4_3",
			"primitives":[
				{
					"attributes":{
						"POSITION":125,
						"NORMAL":126,
						"TEXCOORD_0":127,
						"TANGENT":128
					},
					"indices":49,
					"material":2
				}
			]
		},
		{
			"name":"Screen_D4_4",
			"primitives":[
				{
					"attributes":{
						"POSITION":129,
						"NORMAL":130,
						"TEXCOORD_0":131,
						"TANGENT":132
					},
					"indices":133,
					"material":2
				}
			]
		},
		{
			"name":"Shell_D4",
			"primitives":[
				{
					"attributes":{
						"POSITION":134,
						"NORMAL":135,
						"TEXCOORD_0":136,
						"TANGENT":137
					},
					"indices":138,
					"material":6
				}
			]
		},
		{
			"name":"Prop_Stool",
			"primitives":[
				{
					"attributes":{
						"POSITION":139,
						"NORMAL":140,
						"TEXCOORD_0":141,
						"TANGENT":142
					},
					"indices":143,
					"material":1
				}
			]
		},
		{
			"name":"Prop_PDC_Fore_Magazine",
			"primitives":[
				{
					"attributes":{
						"POSITION":144,
						"NORMAL":145,
						"TEXCOORD_0":146,
						"TANGENT":147
					},
					"indices":148,
					"material":1
				}
			]
		},
		{
			"name":"Screen_D5_1",
			"primitives":[
				{
					"attributes":{
						"POSITION":149,
						"NORMAL":150,
						"TEXCOORD_0":151,
						"TANGENT":152
					},
					"indices":153,
					"material":2
				}
			]
		},
		{
			"name":"Screen_D5_2",
			"primitives":[
				{
					"attributes":{
						"POSITION":154,
						"NORMAL":155,
						"TEXCOORD_0":156,
						"TANGENT":157
					},
					"indices":158,
					"material":2
				}
			]
		},
		{
			"name":"Screen_D5_3",
			"primitives":[
				{
					"attributes":{
						"POSITION":159,
						"NORMAL":160,
						"TEXCOORD_0":161,
						"TANGENT":162
					},
					"indices":124,
					"material":2
				}
			]
		},
		{
			"name":"Screen_D5_4",
			"primitives":[
				{
					"attributes":{
						"POSITION":163,
						"NORMAL":164,
						"TEXCOORD_0":165,
						"TANGENT":166
					},
					"indices":124,
					"material":2
				}
			]
		},
		{
			"name":"Shell_D5",
			"primitives":[
				{
					"attributes":{
						"POSITION":167,
						"NORMAL":168,
						"TEXCOORD_0":169,
						"TANGENT":170
					},
					"indices":171,
					"material":7
				}
			]
		},
		{
			"name":"Screen_Bridge_Dome_1",
			"primitives":[
				{
					"attributes":{
						"POSITION":172,
						"NORMAL":173,
						"TEXCOORD_0":174,
						"TANGENT":175
					},
					"indices":176,
					"material":2
				}
			]
		},
		{
			"name":"Prop_Bridge_Dome",
			"primitives":[
				{
					"attributes":{
						"POSITION":177,
						"NORMAL":178,
						"TEXCOORD_0":179,
						"TANGENT":180
					},
					"indices":181,
					"material":1
				}
			]
		},
		{
			"name":"Prop_EVA_Inner_Hatch",
			"primitives":[
				{
					"attributes":{
						"POSITION":182,
						"NORMAL":183,
						"TEXCOORD_0":184,
						"TANGENT":185
					},
					"indices":9,
					"material":1
				}
			]
		},
		{
			"name":"Shell_D6",
			"primitives":[
				{
					"attributes":{
						"POSITION":186,
						"NORMAL":187,
						"TEXCOORD_0":188,
						"TANGENT":189
					},
					"indices":190,
					"material":8
				}
			]
		},
		{
			"name":"Prop_PDC_Aft_Magazines",
			"primitives":[
				{
					"attributes":{
						"POSITION":191,
						"NORMAL":192,
						"TEXCOORD_0":193,
						"TANGENT":194
					},
					"indices":195,
					"material":1
				}
			]
		},
		{
			"name":"Prop_Pellet_Canister_Short",
			"primitives":[
				{
					"attributes":{
						"POSITION":196,
						"NORMAL":197,
						"TEXCOORD_0":198,
						"TANGENT":199
					},
					"indices":200,
					"material":1
				}
			]
		},
		{
			"name":"Prop_Pellet_Canister_Tall",
			"primitives":[
				{
					"attributes":{
						"POSITION":201,
						"NORMAL":202,
						"TEXCOORD_0":203,
						"TANGENT":204
					},
					"indices":205,
					"material":1
				}
			]
		},
		{
			"name":"Screen_Drive_1",
			"primitives":[
				{
					"attributes":{
						"POSITION":206,
						"NORMAL":207,
						"TEXCOORD_0":208,
						"TANGENT":209
					},
					"indices":124,
					"material":2
				}
			]
		},
		{
			"name":"Shell_Drive",
			"primitives":[
				{
					"attributes":{
						"POSITION":210,
						"NORMAL":211,
						"TEXCOORD_0":212,
						"TANGENT":213
					},
					"indices":214,
					"material":9
				}
			]
		},
		{
			"name":"VOL_Avionics",
			"primitives":[
				{
					"attributes":{
						"POSITION":215,
						"NORMAL":216
					},
					"indices":217
				}
			]
		},
		{
			"name":"VOL_D1",
			"primitives":[
				{
					"attributes":{
						"POSITION":218,
						"NORMAL":219
					},
					"indices":220
				}
			]
		},
		{
			"name":"VOL_D2_D4",
			"primitives":[
				{
					"attributes":{
						"POSITION":221,
						"NORMAL":222
					},
					"indices":223
				}
			]
		},
		{
			"name":"VOL_D5_D6",
			"primitives":[
				{
					"attributes":{
						"POSITION":224,
						"NORMAL":225
					},
					"indices":223
				}
			]
		},
		{
			"name":"VOL_Door_Cargo",
			"primitives":[
				{
					"attributes":{
						"POSITION":226,
						"NORMAL":227
					},
					"indices":228
				}
			]
		},
		{
			"name":"VOL_Door_Docking",
			"primitives":[
				{
					"attributes":{
						"POSITION":229,
						"NORMAL":230
					},
					"indices":228
				}
			]
		},
		{
			"name":"VOL_Drive",
			"primitives":[
				{
					"attributes":{
						"POSITION":231,
						"NORMAL":232
					},
					"indices":220
				}
			]
		},
		{
			"name":"VOL_Hatch_EVA",
			"primitives":[
				{
					"attributes":{
						"POSITION":233,
						"NORMAL":234
					},
					"indices":228
				}
			]
		},
		{
			"name":"VOL_Shoulder",
			"primitives":[
				{
					"attributes":{
						"POSITION":235,
						"NORMAL":236
					},
					"indices":217
				}
			]
		}
	],
	"textures":[
		{
			"sampler":0,
			"source":0
		},
		{
			"sampler":0,
			"source":1
		},
		{
			"sampler":0,
			"source":2
		},
		{
			"sampler":0,
			"source":3
		},
		{
			"sampler":0,
			"source":4
		},
		{
			"sampler":0,
			"source":5
		},
		{
			"sampler":0,
			"source":6
		},
		{
			"sampler":0,
			"source":7
		},
		{
			"sampler":0,
			"source":8
		},
		{
			"sampler":0,
			"source":9
		},
		{
			"sampler":0,
			"source":10
		},
		{
			"sampler":0,
			"source":11
		},
		{
			"sampler":0,
			"source":12
		},
		{
			"sampler":0,
			"source":13
		},
		{
			"sampler":0,
			"source":14
		},
		{
			"sampler":0,
			"source":15
		},
		{
			"sampler":0,
			"source":16
		},
		{
			"sampler":0,
			"source":17
		},
		{
			"sampler":0,
			"source":18
		},
		{
			"sampler":0,
			"source":19
		},
		{
			"sampler":0,
			"source":20
		},
		{
			"sampler":0,
			"source":21
		},
		{
			"sampler":0,
			"source":22
		},
		{
			"sampler":0,
			"source":23
		},
		{
			"sampler":0,
			"source":24
		},
		{
			"sampler":0,
			"source":25
		},
		{
			"sampler":0,
			"source":26
		},
		{
			"sampler":0,
			"source":27
		},
		{
			"sampler":0,
			"source":28
		},
		{
			"sampler":0,
			"source":29
		},
		{
			"sampler":0,
			"source":30
		},
		{
			"sampler":0,
			"source":31
		},
		{
			"sampler":0,
			"source":32
		},
		{
			"sampler":0,
			"source":33
		},
		{
			"sampler":0,
			"source":34
		},
		{
			"sampler":0,
			"source":35
		}
	],
	"images":[
		{
			"mimeType":"image/png",
			"name":"TSI_Avionics_emission",
			"uri":"textures/TSI_Avionics_emission.png"
		},
		{
			"mimeType":"image/png",
			"name":"TSI_Avionics_normal",
			"uri":"textures/TSI_Avionics_normal.png"
		},
		{
			"mimeType":"image/png",
			"name":"TSI_Avionics_ao-TSI_Avionics_roughness-TSI_Avionics_metallic",
			"uri":"textures/TSI_Avionics_ao-TSI_Avionics_roughness-TSI_Avionics_metallic.png"
		},
		{
			"mimeType":"image/png",
			"name":"TSI_Avionics_base_color",
			"uri":"textures/TSI_Avionics_base_color.png"
		},
		{
			"mimeType":"image/png",
			"name":"TSI_Props_emission",
			"uri":"textures/TSI_Props_emission.png"
		},
		{
			"mimeType":"image/png",
			"name":"TSI_Props_normal",
			"uri":"textures/TSI_Props_normal.png"
		},
		{
			"mimeType":"image/png",
			"name":"TSI_Props_ao-TSI_Props_roughness-TSI_Props_metallic",
			"uri":"textures/TSI_Props_ao-TSI_Props_roughness-TSI_Props_metallic.png"
		},
		{
			"mimeType":"image/png",
			"name":"TSI_Props_base_color",
			"uri":"textures/TSI_Props_base_color.png"
		},
		{
			"mimeType":"image/png",
			"name":"TSI_D1_emission",
			"uri":"textures/TSI_D1_emission.png"
		},
		{
			"mimeType":"image/png",
			"name":"TSI_D1_normal",
			"uri":"textures/TSI_D1_normal.png"
		},
		{
			"mimeType":"image/png",
			"name":"TSI_D1_ao-TSI_D1_roughness-TSI_D1_metallic",
			"uri":"textures/TSI_D1_ao-TSI_D1_roughness-TSI_D1_metallic.png"
		},
		{
			"mimeType":"image/png",
			"name":"TSI_D1_base_color",
			"uri":"textures/TSI_D1_base_color.png"
		},
		{
			"mimeType":"image/png",
			"name":"TSI_D2_emission",
			"uri":"textures/TSI_D2_emission.png"
		},
		{
			"mimeType":"image/png",
			"name":"TSI_D2_normal",
			"uri":"textures/TSI_D2_normal.png"
		},
		{
			"mimeType":"image/png",
			"name":"TSI_D2_ao-TSI_D2_roughness-TSI_D2_metallic",
			"uri":"textures/TSI_D2_ao-TSI_D2_roughness-TSI_D2_metallic.png"
		},
		{
			"mimeType":"image/png",
			"name":"TSI_D2_base_color",
			"uri":"textures/TSI_D2_base_color.png"
		},
		{
			"mimeType":"image/png",
			"name":"TSI_D3_emission",
			"uri":"textures/TSI_D3_emission.png"
		},
		{
			"mimeType":"image/png",
			"name":"TSI_D3_normal",
			"uri":"textures/TSI_D3_normal.png"
		},
		{
			"mimeType":"image/png",
			"name":"TSI_D3_ao-TSI_D3_roughness-TSI_D3_metallic",
			"uri":"textures/TSI_D3_ao-TSI_D3_roughness-TSI_D3_metallic.png"
		},
		{
			"mimeType":"image/png",
			"name":"TSI_D3_base_color",
			"uri":"textures/TSI_D3_base_color.png"
		},
		{
			"mimeType":"image/png",
			"name":"TSI_D4_emission",
			"uri":"textures/TSI_D4_emission.png"
		},
		{
			"mimeType":"image/png",
			"name":"TSI_D4_normal",
			"uri":"textures/TSI_D4_normal.png"
		},
		{
			"mimeType":"image/png",
			"name":"TSI_D4_ao-TSI_D4_roughness-TSI_D4_metallic",
			"uri":"textures/TSI_D4_ao-TSI_D4_roughness-TSI_D4_metallic.png"
		},
		{
			"mimeType":"image/png",
			"name":"TSI_D4_base_color",
			"uri":"textures/TSI_D4_base_color.png"
		},
		{
			"mimeType":"image/png",
			"name":"TSI_D5_emission",
			"uri":"textures/TSI_D5_emission.png"
		},
		{
			"mimeType":"image/png",
			"name":"TSI_D5_normal",
			"uri":"textures/TSI_D5_normal.png"
		},
		{
			"mimeType":"image/png",
			"name":"TSI_D5_ao-TSI_D5_roughness-TSI_D5_metallic",
			"uri":"textures/TSI_D5_ao-TSI_D5_roughness-TSI_D5_metallic.png"
		},
		{
			"mimeType":"image/png",
			"name":"TSI_D5_base_color",
			"uri":"textures/TSI_D5_base_color.png"
		},
		{
			"mimeType":"image/png",
			"name":"TSI_D6_emission",
			"uri":"textures/TSI_D6_emission.png"
		},
		{
			"mimeType":"image/png",
			"name":"TSI_D6_normal",
			"uri":"textures/TSI_D6_normal.png"
		},
		{
			"mimeType":"image/png",
			"name":"TSI_D6_ao-TSI_D6_roughness-TSI_D6_metallic",
			"uri":"textures/TSI_D6_ao-TSI_D6_roughness-TSI_D6_metallic.png"
		},
		{
			"mimeType":"image/png",
			"name":"TSI_D6_base_color",
			"uri":"textures/TSI_D6_base_color.png"
		},
		{
			"mimeType":"image/png",
			"name":"TSI_Drive_emission",
			"uri":"textures/TSI_Drive_emission.png"
		},
		{
			"mimeType":"image/png",
			"name":"TSI_Drive_normal",
			"uri":"textures/TSI_Drive_normal.png"
		},
		{
			"mimeType":"image/png",
			"name":"TSI_Drive_ao-TSI_Drive_roughness-TSI_Drive_metallic",
			"uri":"textures/TSI_Drive_ao-TSI_Drive_roughness-TSI_Drive_metallic.png"
		},
		{
			"mimeType":"image/png",
			"name":"TSI_Drive_base_color",
			"uri":"textures/TSI_Drive_base_color.png"
		}
	],
	"accessors":[
		{
			"bufferView":0,
			"componentType":5126,
			"count":4927,
			"max":[
				2.6000001430511475,
				28.893997192382812,
				2.5500004291534424
			],
			"min":[
				-2.5500001907348633,
				27.75,
				-2.5500001907348633
			],
			"type":"VEC3"
		},
		{
			"bufferView":1,
			"componentType":5126,
			"count":4927,
			"type":"VEC3"
		},
		{
			"bufferView":2,
			"componentType":5126,
			"count":4927,
			"type":"VEC2"
		},
		{
			"bufferView":3,
			"componentType":5126,
			"count":4927,
			"type":"VEC4"
		},
		{
			"bufferView":4,
			"componentType":5123,
			"count":6504,
			"type":"SCALAR"
		},
		{
			"bufferView":5,
			"componentType":5126,
			"count":192,
			"max":[
				0.30000001192092896,
				0.6000000238418579,
				0.04500000178813934
			],
			"min":[
				-0.30000001192092896,
				0,
				-0.02500000037252903
			],
			"type":"VEC3"
		},
		{
			"bufferView":6,
			"componentType":5126,
			"count":192,
			"type":"VEC3"
		},
		{
			"bufferView":7,
			"componentType":5126,
			"count":192,
			"type":"VEC2"
		},
		{
			"bufferView":8,
			"componentType":5126,
			"count":192,
			"type":"VEC4"
		},
		{
			"bufferView":9,
			"componentType":5123,
			"count":264,
			"type":"SCALAR"
		},
		{
			"bufferView":10,
			"componentType":5126,
			"count":100,
			"max":[
				0.17960500717163086,
				0.15999889373779297,
				0.1796056032180786
			],
			"min":[
				-0.17960524559020996,
				-0.16000080108642578,
				-0.1796046495437622
			],
			"type":"VEC3"
		},
		{
			"bufferView":11,
			"componentType":5126,
			"count":100,
			"type":"VEC3"
		},
		{
			"bufferView":12,
			"componentType":5126,
			"count":100,
			"type":"VEC2"
		},
		{
			"bufferView":13,
			"componentType":5126,
			"count":100,
			"type":"VEC4"
		},
		{
			"bufferView":14,
			"componentType":5123,
			"count":132,
			"type":"SCALAR"
		},
		{
			"bufferView":15,
			"componentType":5126,
			"count":106,
			"max":[
				0.14142143726348877,
				0.09999847412109375,
				0.14142119884490967
			],
			"min":[
				-0.14142119884490967,
				-0.10000228881835938,
				-0.14142167568206787
			],
			"type":"VEC3"
		},
		{
			"bufferView":16,
			"componentType":5126,
			"count":106,
			"type":"VEC3"
		},
		{
			"bufferView":17,
			"componentType":5126,
			"count":106,
			"type":"VEC2"
		},
		{
			"bufferView":18,
			"componentType":5126,
			"count":106,
			"type":"VEC4"
		},
		{
			"bufferView":19,
			"componentType":5123,
			"count":132,
			"type":"SCALAR"
		},
		{
			"bufferView":20,
			"componentType":5126,
			"count":80,
			"max":[
				0.1202082633972168,
				0.10000133514404297,
				0.12020814418792725
			],
			"min":[
				-0.1202080249786377,
				-0.09999942779541016,
				-0.12020814418792725
			],
			"type":"VEC3"
		},
		{
			"bufferView":21,
			"componentType":5126,
			"count":80,
			"type":"VEC3"
		},
		{
			"bufferView":22,
			"componentType":5126,
			"count":80,
			"type":"VEC2"
		},
		{
			"bufferView":23,
			"componentType":5126,
			"count":80,
			"type":"VEC4"
		},
		{
			"bufferView":24,
			"componentType":5123,
			"count":132,
			"type":"SCALAR"
		},
		{
			"bufferView":25,
			"componentType":5126,
			"count":108,
			"max":[
				0.1202082633972168,
				0.10000133514404297,
				0.12020814418792725
			],
			"min":[
				-0.1202082633972168,
				-0.09999942779541016,
				-0.12020814418792725
			],
			"type":"VEC3"
		},
		{
			"bufferView":26,
			"componentType":5126,
			"count":108,
			"type":"VEC3"
		},
		{
			"bufferView":27,
			"componentType":5126,
			"count":108,
			"type":"VEC2"
		},
		{
			"bufferView":28,
			"componentType":5126,
			"count":108,
			"type":"VEC4"
		},
		{
			"bufferView":29,
			"componentType":5123,
			"count":132,
			"type":"SCALAR"
		},
		{
			"bufferView":30,
			"componentType":5126,
			"count":23079,
			"max":[
				2.7943332195281982,
				13.149999618530273,
				2.7689921855926514
			],
			"min":[
				-2.7943332195281982,
				10.149999618530273,
				-2.7689924240112305
			],
			"type":"VEC3"
		},
		{
			"bufferView":31,
			"componentType":5126,
			"count":23079,
			"type":"VEC3"
		},
		{
			"bufferView":32,
			"componentType":5126,
			"count":23079,
			"type":"VEC2"
		},
		{
			"bufferView":33,
			"componentType":5126,
			"count":23079,
			"type":"VEC4"
		},
		{
			"bufferView":34,
			"componentType":5123,
			"count":57468,
			"type":"SCALAR"
		},
		{
			"bufferView":35,
			"componentType":5126,
			"count":381,
			"max":[
				0.3034641444683075,
				1.0100382566452026,
				0.3034641444683075
			],
			"min":[
				-0.3034641444683075,
				0,
				-0.3034641444683075
			],
			"type":"VEC3"
		},
		{
			"bufferView":36,
			"componentType":5126,
			"count":381,
			"type":"VEC3"
		},
		{
			"bufferView":37,
			"componentType":5126,
			"count":381,
			"type":"VEC2"
		},
		{
			"bufferView":38,
			"componentType":5126,
			"count":381,
			"type":"VEC4"
		},
		{
			"bufferView":39,
			"componentType":5123,
			"count":462,
			"type":"SCALAR"
		},
		{
			"bufferView":40,
			"componentType":5126,
			"count":8099,
			"max":[
				0.08999999612569809,
				2.799999952316284,
				0.23999999463558197
			],
			"min":[
				0.029999999329447746,
				0,
				-0.23999999463558197
			],
			"type":"VEC3"
		},
		{
			"bufferView":41,
			"componentType":5126,
			"count":8099,
			"type":"VEC3"
		},
		{
			"bufferView":42,
			"componentType":5126,
			"count":8099,
			"type":"VEC2"
		},
		{
			"bufferView":43,
			"componentType":5126,
			"count":8099,
			"type":"VEC4"
		},
		{
			"bufferView":44,
			"componentType":5123,
			"count":9924,
			"type":"SCALAR"
		},
		{
			"bufferView":45,
			"componentType":5126,
			"count":80,
			"max":[
				0.0025000572204589844,
				0.1450023651123047,
				0.09999942779541016
			],
			"min":[
				-0.0025000572204589844,
				-0.14499855041503906,
				-0.10000038146972656
			],
			"type":"VEC3"
		},
		{
			"bufferView":46,
			"componentType":5126,
			"count":80,
			"type":"VEC3"
		},
		{
			"bufferView":47,
			"componentType":5126,
			"count":80,
			"type":"VEC2"
		},
		{
			"bufferView":48,
			"componentType":5126,
			"count":80,
			"type":"VEC4"
		},
		{
			"bufferView":49,
			"componentType":5123,
			"count":132,
			"type":"SCALAR"
		},
		{
			"bufferView":50,
			"componentType":5126,
			"count":80,
			"max":[
				0.004999876022338867,
				0.06999969482421875,
				0.0699998140335083
			],
			"min":[
				-0.00500035285949707,
				-0.06999969482421875,
				-0.0700002908706665
			],
			"type":"VEC3"
		},
		{
			"bufferView":51,
			"componentType":5126,
			"count":80,
			"type":"VEC3"
		},
		{
			"bufferView":52,
			"componentType":5126,
			"count":80,
			"type":"VEC2"
		},
		{
			"bufferView":53,
			"componentType":5126,
			"count":80,
			"type":"VEC4"
		},
		{
			"bufferView":54,
			"componentType":5123,
			"count":132,
			"type":"SCALAR"
		},
		{
			"bufferView":55,
			"componentType":5126,
			"count":13243,
			"max":[
				3.3011474609375,
				15.950000762939453,
				3.250000476837158
			],
			"min":[
				-3.250000238418579,
				13.149999618530273,
				-3.250000238418579
			],
			"type":"VEC3"
		},
		{
			"bufferView":56,
			"componentType":5126,
			"count":13243,
			"type":"VEC3"
		},
		{
			"bufferView":57,
			"componentType":5126,
			"count":13243,
			"type":"VEC2"
		},
		{
			"bufferView":58,
			"componentType":5126,
			"count":13243,
			"type":"VEC4"
		},
		{
			"bufferView":59,
			"componentType":5123,
			"count":17790,
			"type":"SCALAR"
		},
		{
			"bufferView":60,
			"componentType":5126,
			"count":744,
			"max":[
				0.7400000095367432,
				0.05000000074505806,
				0.7400000095367432
			],
			"min":[
				-0.7400000095367432,
				-0.07000000029802322,
				-0.7400000095367432
			],
			"type":"VEC3"
		},
		{
			"bufferView":61,
			"componentType":5126,
			"count":744,
			"type":"VEC3"
		},
		{
			"bufferView":62,
			"componentType":5126,
			"count":744,
			"type":"VEC2"
		},
		{
			"bufferView":63,
			"componentType":5126,
			"count":744,
			"type":"VEC4"
		},
		{
			"bufferView":64,
			"componentType":5123,
			"count":936,
			"type":"SCALAR"
		},
		{
			"bufferView":65,
			"componentType":5126,
			"count":1116,
			"max":[
				1.5,
				2.200000047683716,
				0.32999998331069946
			],
			"min":[
				-1.5,
				0,
				-0.30000001192092896
			],
			"type":"VEC3"
		},
		{
			"bufferView":66,
			"componentType":5126,
			"count":1116,
			"type":"VEC3"
		},
		{
			"bufferView":67,
			"componentType":5126,
			"count":1116,
			"type":"VEC2"
		},
		{
			"bufferView":68,
			"componentType":5126,
			"count":1116,
			"type":"VEC4"
		},
		{
			"bufferView":69,
			"componentType":5123,
			"count":1662,
			"type":"SCALAR"
		},
		{
			"bufferView":70,
			"componentType":5126,
			"count":238,
			"max":[
				0.07000000029802322,
				0.08768447488546371,
				0.07000000029802322
			],
			"min":[
				-0.07000000029802322,
				-0.0066463276743888855,
				-0.07000000029802322
			],
			"type":"VEC3"
		},
		{
			"bufferView":71,
			"componentType":5126,
			"count":238,
			"type":"VEC3"
		},
		{
			"bufferView":72,
			"componentType":5126,
			"count":238,
			"type":"VEC2"
		},
		{
			"bufferView":73,
			"componentType":5126,
			"count":238,
			"type":"VEC4"
		},
		{
			"bufferView":74,
			"componentType":5123,
			"count":522,
			"type":"SCALAR"
		},
		{
			"bufferView":75,
			"componentType":5126,
			"count":1078,
			"max":[
				1.0649999380111694,
				2.4000000953674316,
				0.41999998688697815
			],
			"min":[
				-1.0649999380111694,
				0,
				-0.4099999964237213
			],
			"type":"VEC3"
		},
		{
			"bufferView":76,
			"componentType":5126,
			"count":1078,
			"type":"VEC3"
		},
		{
			"bufferView":77,
			"componentType":5126,
			"count":1078,
			"type":"VEC2"
		},
		{
			"bufferView":78,
			"componentType":5126,
			"count":1078,
			"type":"VEC4"
		},
		{
			"bufferView":79,
			"componentType":5123,
			"count":1524,
			"type":"SCALAR"
		},
		{
			"bufferView":80,
			"componentType":5126,
			"count":80,
			"max":[
				-0.7450002431869507,
				1.4999980926513672,
				0.05999999865889549
			],
			"min":[
				-0.7550002336502075,
				1.0999979972839355,
				-0.05999999865889549
			],
			"type":"VEC3"
		},
		{
			"bufferView":81,
			"componentType":5126,
			"count":80,
			"type":"VEC3"
		},
		{
			"bufferView":82,
			"componentType":5126,
			"count":80,
			"type":"VEC2"
		},
		{
			"bufferView":83,
			"componentType":5126,
			"count":80,
			"type":"VEC4"
		},
		{
			"bufferView":84,
			"componentType":5123,
			"count":132,
			"type":"SCALAR"
		},
		{
			"bufferView":85,
			"componentType":5126,
			"count":2917,
			"max":[
				0.7369961738586426,
				2.5499980449676514,
				0.8931459188461304
			],
			"min":[
				-0.7450002431869507,
				-0.2500019073486328,
				-0.8931459188461304
			],
			"type":"VEC3"
		},
		{
			"bufferView":86,
			"componentType":5126,
			"count":2917,
			"type":"VEC3"
		},
		{
			"bufferView":87,
			"componentType":5126,
			"count":2917,
			"type":"VEC2"
		},
		{
			"bufferView":88,
			"componentType":5126,
			"count":2917,
			"type":"VEC4"
		},
		{
			"bufferView":89,
			"componentType":5123,
			"count":11148,
			"type":"SCALAR"
		},
		{
			"bufferView":90,
			"componentType":5126,
			"count":96,
			"max":[
				0.010000467300415039,
				0.05999946594238281,
				0.09999996423721313
			],
			"min":[
				-0.009999513626098633,
				-0.05999946594238281,
				-0.10000008344650269
			],
			"type":"VEC3"
		},
		{
			"bufferView":91,
			"componentType":5126,
			"count":96,
			"type":"VEC3"
		},
		{
			"bufferView":92,
			"componentType":5126,
			"count":96,
			"type":"VEC2"
		},
		{
			"bufferView":93,
			"componentType":5126,
			"count":96,
			"type":"VEC4"
		},
		{
			"bufferView":94,
			"componentType":5123,
			"count":132,
			"type":"SCALAR"
		},
		{
			"bufferView":95,
			"componentType":5126,
			"count":7627,
			"max":[
				3.3011474609375,
				18.75,
				3.250000476837158
			],
			"min":[
				-3.303948163986206,
				15.949999809265137,
				-3.250000238418579
			],
			"type":"VEC3"
		},
		{
			"bufferView":96,
			"componentType":5126,
			"count":7627,
			"type":"VEC3"
		},
		{
			"bufferView":97,
			"componentType":5126,
			"count":7627,
			"type":"VEC2"
		},
		{
			"bufferView":98,
			"componentType":5126,
			"count":7627,
			"type":"VEC4"
		},
		{
			"bufferView":99,
			"componentType":5123,
			"count":10437,
			"type":"SCALAR"
		},
		{
			"bufferView":100,
			"componentType":5126,
			"count":192,
			"max":[
				0.4000000059604645,
				1.975000023841858,
				0.04999999701976776
			],
			"min":[
				-0.4000000059604645,
				0.02499997615814209,
				-0.029999999329447746
			],
			"type":"VEC3"
		},
		{
			"bufferView":101,
			"componentType":5126,
			"count":192,
			"type":"VEC3"
		},
		{
			"bufferView":102,
			"componentType":5126,
			"count":192,
			"type":"VEC2"
		},
		{
			"bufferView":103,
			"componentType":5126,
			"count":192,
			"type":"VEC4"
		},
		{
			"bufferView":104,
			"componentType":5123,
			"count":264,
			"type":"SCALAR"
		},
		{
			"bufferView":105,
			"componentType":5126,
			"count":2221,
			"max":[
				0.043447088450193405,
				1.340000033378601,
				0.6399999856948853
			],
			"min":[
				-0.10732053220272064,
				-0.043447092175483704,
				-0.6399999856948853
			],
			"type":"VEC3"
		},
		{
			"bufferView":106,
			"componentType":5126,
			"count":2221,
			"type":"VEC3"
		},
		{
			"bufferView":107,
			"componentType":5126,
			"count":2221,
			"type":"VEC2"
		},
		{
			"bufferView":108,
			"componentType":5126,
			"count":2221,
			"type":"VEC4"
		},
		{
			"bufferView":109,
			"componentType":5123,
			"count":4320,
			"type":"SCALAR"
		},
		{
			"bufferView":110,
			"componentType":5126,
			"count":1179,
			"max":[
				1.11899995803833,
				0.5499981045722961,
				0.5319936275482178
			],
			"min":[
				-0.5319936275482178,
				-0.5000019073486328,
				-0.5319936275482178
			],
			"type":"VEC3"
		},
		{
			"bufferView":111,
			"componentType":5126,
			"count":1179,
			"type":"VEC3"
		},
		{
			"bufferView":112,
			"componentType":5126,
			"count":1179,
			"type":"VEC2"
		},
		{
			"bufferView":113,
			"componentType":5126,
			"count":1179,
			"type":"VEC4"
		},
		{
			"bufferView":114,
			"componentType":5123,
			"count":3702,
			"type":"SCALAR"
		},
		{
			"bufferView":115,
			"componentType":5126,
			"count":80,
			"max":[
				0.005000114440917969,
				0.09999656677246094,
				0.09000003337860107
			],
			"min":[
				-0.004999876022338867,
				-0.10000419616699219,
				-0.09000003337860107
			],
			"type":"VEC3"
		},
		{
			"bufferView":116,
			"componentType":5126,
			"count":80,
			"type":"VEC3"
		},
		{
			"bufferView":117,
			"componentType":5126,
			"count":80,
			"type":"VEC2"
		},
		{
			"bufferView":118,
			"componentType":5126,
			"count":80,
			"type":"VEC4"
		},
		{
			"bufferView":119,
			"componentType":5123,
			"count":132,
			"type":"SCALAR"
		},
		{
			"bufferView":120,
			"componentType":5126,
			"count":80,
			"max":[
				0.1499999761581421,
				0.14999771118164062,
				0.0050002336502075195
			],
			"min":[
				-0.1499999761581421,
				-0.15000152587890625,
				-0.004999876022338867
			],
			"type":"VEC3"
		},
		{
			"bufferView":121,
			"componentType":5126,
			"count":80,
			"type":"VEC3"
		},
		{
			"bufferView":122,
			"componentType":5126,
			"count":80,
			"type":"VEC2"
		},
		{
			"bufferView":123,
			"componentType":5126,
			"count":80,
			"type":"VEC4"
		},
		{
			"bufferView":124,
			"componentType":5123,
			"count":132,
			"type":"SCALAR"
		},
		{
			"bufferView":125,
			"componentType":5126,
			"count":80,
			"max":[
				0.005000114440917969,
				0.1499958038330078,
				0.17500001192092896
			],
			"min":[
				-0.005000114440917969,
				-0.15000343322753906,
				-0.17500001192092896
			],
			"type":"VEC3"
		},
		{
			"bufferView":126,
			"componentType":5126,
			"count":80,
			"type":"VEC3"
		},
		{
			"bufferView":127,
			"componentType":5126,
			"count":80,
			"type":"VEC2"
		},
		{
			"bufferView":128,
			"componentType":5126,
			"count":80,
			"type":"VEC4"
		},
		{
			"bufferView":129,
			"componentType":5126,
			"count":80,
			"max":[
				0.004999876022338867,
				0.125,
				0.17499999701976776
			],
			"min":[
				-0.00500035285949707,
				-0.125,
				-0.17499999701976776
			],
			"type":"VEC3"
		},
		{
			"bufferView":130,
			"componentType":5126,
			"count":80,
			"type":"VEC3"
		},
		{
			"bufferView":131,
			"componentType":5126,
			"count":80,
			"type":"VEC2"
		},
		{
			"bufferView":132,
			"componentType":5126,
			"count":80,
			"type":"VEC4"
		},
		{
			"bufferView":133,
			"componentType":5123,
			"count":132,
			"type":"SCALAR"
		},
		{
			"bufferView":134,
			"componentType":5126,
			"count":12966,
			"max":[
				3.253999948501587,
				21.75,
				3.3000001907348633
			],
			"min":[
				-3.250000238418579,
				18.75,
				-3.575000047683716
			],
			"type":"VEC3"
		},
		{
			"bufferView":135,
			"componentType":5126,
			"count":12966,
			"type":"VEC3"
		},
		{
			"bufferView":136,
			"componentType":5126,
			"count":12966,
			"type":"VEC2"
		},
		{
			"bufferView":137,
			"componentType":5126,
			"count":12966,
			"type":"VEC4"
		},
		{
			"bufferView":138,
			"componentType":5123,
			"count":19848,
			"type":"SCALAR"
		},
		{
			"bufferView":139,
			"componentType":5126,
			"count":280,
			"max":[
				0.18000000715255737,
				0.5,
				0.18000000715255737
			],
			"min":[
				-0.18000000715255737,
				0,
				-0.18000000715255737
			],
			"type":"VEC3"
		},
		{
			"bufferView":140,
			"componentType":5126,
			"count":280,
			"type":"VEC3"
		},
		{
			"bufferView":141,
			"componentType":5126,
			"count":280,
			"type":"VEC2"
		},
		{
			"bufferView":142,
			"componentType":5126,
			"count":280,
			"type":"VEC4"
		},
		{
			"bufferView":143,
			"componentType":5123,
			"count":612,
			"type":"SCALAR"
		},
		{
			"bufferView":144,
			"componentType":5126,
			"count":348,
			"max":[
				0.5940000414848328,
				0.7749999761581421,
				0.5
			],
			"min":[
				-0.3499999940395355,
				-1.2000000476837158,
				-0.5
			],
			"type":"VEC3"
		},
		{
			"bufferView":145,
			"componentType":5126,
			"count":348,
			"type":"VEC3"
		},
		{
			"bufferView":146,
			"componentType":5126,
			"count":348,
			"type":"VEC2"
		},
		{
			"bufferView":147,
			"componentType":5126,
			"count":348,
			"type":"VEC4"
		},
		{
			"bufferView":148,
			"componentType":5123,
			"count":480,
			"type":"SCALAR"
		},
		{
			"bufferView":149,
			"componentType":5126,
			"count":96,
			"max":[
				0.007499992847442627,
				0.1750011444091797,
				0.25
			],
			"min":[
				-0.007499992847442627,
				-0.17499732971191406,
				-0.25
			],
			"type":"VEC3"
		},
		{
			"bufferView":150,
			"componentType":5126,
			"count":96,
			"type":"VEC3"
		},
		{
			"bufferView":151,
			"componentType":5126,
			"count":96,
			"type":"VEC2"
		},
		{
			"bufferView":152,
			"componentType":5126,
			"count":96,
			"type":"VEC4"
		},
		{
			"bufferView":153,
			"componentType":5123,
			"count":132,
			"type":"SCALAR"
		},
		{
			"bufferView":154,
			"componentType":5126,
			"count":102,
			"max":[
				0.1785445213317871,
				0.1999988555908203,
				0.178544282913208
			],
			"min":[
				-0.1785447597503662,
				-0.20000267028808594,
				-0.1785445213317871
			],
			"type":"VEC3"
		},
		{
			"bufferView":155,
			"componentType":5126,
			"count":102,
			"type":"VEC3"
		},
		{
			"bufferView":156,
			"componentType":5126,
			"count":102,
			"type":"VEC2"
		},
		{
			"bufferView":157,
			"componentType":5126,
			"count":102,
			"type":"VEC4"
		},
		{
			"bufferView":158,
			"componentType":5123,
			"count":132,
			"type":"SCALAR"
		},
		{
			"bufferView":159,
			"componentType":5126,
			"count":80,
			"max":[
				0.4500000476837158,
				0.22500038146972656,
				0.0025000572204589844
			],
			"min":[
				-0.4500000476837158,
				-0.22500038146972656,
				-0.0024999380111694336
			],
			"type":"VEC3"
		},
		{
			"bufferView":160,
			"componentType":5126,
			"count":80,
			"type":"VEC3"
		},
		{
			"bufferView":161,
			"componentType":5126,
			"count":80,
			"type":"VEC2"
		},
		{
			"bufferView":162,
			"componentType":5126,
			"count":80,
			"type":"VEC4"
		},
		{
			"bufferView":163,
			"componentType":5126,
			"count":80,
			"max":[
				0.1749998927116394,
				0.20000076293945312,
				0.005000114440917969
			],
			"min":[
				-0.1750001311302185,
				-0.20000076293945312,
				-0.005000114440917969
			],
			"type":"VEC3"
		},
		{
			"bufferView":164,
			"componentType":5126,
			"count":80,
			"type":"VEC3"
		},
		{
			"bufferView":165,
			"componentType":5126,
			"count":80,
			"type":"VEC2"
		},
		{
			"bufferView":166,
			"componentType":5126,
			"count":80,
			"type":"VEC4"
		},
		{
			"bufferView":167,
			"componentType":5126,
			"count":15706,
			"max":[
				3.250000238418579,
				24.75,
				3.3000001907348633
			],
			"min":[
				-3.250000238418579,
				21.75,
				-3.6272621154785156
			],
			"type":"VEC3"
		},
		{
			"bufferView":168,
			"componentType":5126,
			"count":15706,
			"type":"VEC3"
		},
		{
			"bufferView":169,
			"componentType":5126,
			"count":15706,
			"type":"VEC2"
		},
		{
			"bufferView":170,
			"componentType":5126,
			"count":15706,
			"type":"VEC4"
		},
		{
			"bufferView":171,
			"componentType":5123,
			"count":20586,
			"type":"SCALAR"
		},
		{
			"bufferView":172,
			"componentType":5126,
			"count":325,
			"max":[
				0.7846190333366394,
				1.2726386785507202,
				0.8149999976158142
			],
			"min":[
				-0.7846190333366394,
				0.39750993251800537,
				0.22931937873363495
			],
			"type":"VEC3"
		},
		{
			"bufferView":173,
			"componentType":5126,
			"count":325,
			"type":"VEC3"
		},
		{
			"bufferView":174,
			"componentType":5126,
			"count":325,
			"type":"VEC2"
		},
		{
			"bufferView":175,
			"componentType":5126,
			"count":325,
			"type":"VEC4"
		},
		{
			"bufferView":176,
			"componentType":5123,
			"count":1728,
			"type":"SCALAR"
		},
		{
			"bufferView":177,
			"componentType":5126,
			"count":4340,
			"max":[
				0.8302307724952698,
				1.4637855291366577,
				0.8690000176429749
			],
			"min":[
				-0.8302307724952698,
				0.3449227809906006,
				0.1861981302499771
			],
			"type":"VEC3"
		},
		{
			"bufferView":178,
			"componentType":5126,
			"count":4340,
			"type":"VEC3"
		},
		{
			"bufferView":179,
			"componentType":5126,
			"count":4340,
			"type":"VEC2"
		},
		{
			"bufferView":180,
			"componentType":5126,
			"count":4340,
			"type":"VEC4"
		},
		{
			"bufferView":181,
			"componentType":5123,
			"count":12576,
			"type":"SCALAR"
		},
		{
			"bufferView":182,
			"componentType":5126,
			"count":192,
			"max":[
				0.029999999329447746,
				1.7000000476837158,
				0
			],
			"min":[
				-0.054999999701976776,
				0.19999998807907104,
				-0.699999988079071
			],
			"type":"VEC3"
		},
		{
			"bufferView":183,
			"componentType":5126,
			"count":192,
			"type":"VEC3"
		},
		{
			"bufferView":184,
			"componentType":5126,
			"count":192,
			"type":"VEC2"
		},
		{
			"bufferView":185,
			"componentType":5126,
			"count":192,
			"type":"VEC4"
		},
		{
			"bufferView":186,
			"componentType":5126,
			"count":22107,
			"max":[
				2.6000001430511475,
				27.75,
				2.5500004291534424
			],
			"min":[
				-2.5500001907348633,
				24.75,
				-2.5500001907348633
			],
			"type":"VEC3"
		},
		{
			"bufferView":187,
			"componentType":5126,
			"count":22107,
			"type":"VEC3"
		},
		{
			"bufferView":188,
			"componentType":5126,
			"count":22107,
			"type":"VEC2"
		},
		{
			"bufferView":189,
			"componentType":5126,
			"count":22107,
			"type":"VEC4"
		},
		{
			"bufferView":190,
			"componentType":5123,
			"count":26940,
			"type":"SCALAR"
		},
		{
			"bufferView":191,
			"componentType":5126,
			"count":242,
			"max":[
				1.0789475440979004,
				0.5399999618530273,
				0.42500001192092896
			],
			"min":[
				-0.42500001192092896,
				-0.5249999761581421,
				-0.42500001192092896
			],
			"type":"VEC3"
		},
		{
			"bufferView":192,
			"componentType":5126,
			"count":242,
			"type":"VEC3"
		},
		{
			"bufferView":193,
			"componentType":5126,
			"count":242,
			"type":"VEC2"
		},
		{
			"bufferView":194,
			"componentType":5126,
			"count":242,
			"type":"VEC4"
		},
		{
			"bufferView":195,
			"componentType":5123,
			"count":336,
			"type":"SCALAR"
		},
		{
			"bufferView":196,
			"componentType":5126,
			"count":2326,
			"max":[
				0.4469935894012451,
				2.5199999809265137,
				0.4469935894012451
			],
			"min":[
				-0.4469935894012451,
				0.003999993205070496,
				-0.4469935894012451
			],
			"type":"VEC3"
		},
		{
			"bufferView":197,
			"componentType":5126,
			"count":2326,
			"type":"VEC3"
		},
		{
			"bufferView":198,
			"componentType":5126,
			"count":2326,
			"type":"VEC2"
		},
		{
			"bufferView":199,
			"componentType":5126,
			"count":2326,
			"type":"VEC4"
		},
		{
			"bufferView":200,
			"componentType":5123,
			"count":9585,
			"type":"SCALAR"
		},
		{
			"bufferView":201,
			"componentType":5126,
			"count":2231,
			"max":[
				0.4469935894012451,
				3.8299999237060547,
				0.4469935894012451
			],
			"min":[
				-0.4469935894012451,
				0.003999993205070496,
				-0.4469935894012451
			],
			"type":"VEC3"
		},
		{
			"bufferView":202,
			"componentType":5126,
			"count":2231,
			"type":"VEC3"
		},
		{
			"bufferView":203,
			"componentType":5126,
			"count":2231,
			"type":"VEC2"
		},
		{
			"bufferView":204,
			"componentType":5126,
			"count":2231,
			"type":"VEC4"
		},
		{
			"bufferView":205,
			"componentType":5123,
			"count":8931,
			"type":"SCALAR"
		},
		{
			"bufferView":206,
			"componentType":5126,
			"count":80,
			"max":[
				0.06000012159347534,
				0.06999969482421875,
				0.004999876022338867
			],
			"min":[
				-0.05999988317489624,
				-0.06999969482421875,
				-0.00500035285949707
			],
			"type":"VEC3"
		},
		{
			"bufferView":207,
			"componentType":5126,
			"count":80,
			"type":"VEC3"
		},
		{
			"bufferView":208,
			"componentType":5126,
			"count":80,
			"type":"VEC2"
		},
		{
			"bufferView":209,
			"componentType":5126,
			"count":80,
			"type":"VEC4"
		},
		{
			"bufferView":210,
			"componentType":5126,
			"count":33425,
			"max":[
				3.2555601596832275,
				10.149999618530273,
				3.2555601596832275
			],
			"min":[
				-3.2555601596832275,
				5.920193672180176,
				-3.4240000247955322
			],
			"type":"VEC3"
		},
		{
			"bufferView":211,
			"componentType":5126,
			"count":33425,
			"type":"VEC3"
		},
		{
			"bufferView":212,
			"componentType":5126,
			"count":33425,
			"type":"VEC2"
		},
		{
			"bufferView":213,
			"componentType":5126,
			"count":33425,
			"type":"VEC4"
		},
		{
			"bufferView":214,
			"componentType":5123,
			"count":88890,
			"type":"SCALAR"
		},
		{
			"bufferView":215,
			"componentType":5126,
			"count":48,
			"max":[
				2.5999999046325684,
				0.3900012969970703,
				2.5999999046325684
			],
			"min":[
				-2.5999999046325684,
				-0.3899993896484375,
				-2.5999999046325684
			],
			"type":"VEC3"
		},
		{
			"bufferView":216,
			"componentType":5126,
			"count":48,
			"type":"VEC3"
		},
		{
			"bufferView":217,
			"componentType":5123,
			"count":84,
			"type":"SCALAR"
		},
		{
			"bufferView":218,
			"componentType":5126,
			"count":48,
			"max":[
				2.799999952316284,
				1.5000009536743164,
				2.799999952316284
			],
			"min":[
				-2.799999952316284,
				-1.4999990463256836,
				-2.799999952316284
			],
			"type":"VEC3"
		},
		{
			"bufferView":219,
			"componentType":5126,
			"count":48,
			"type":"VEC3"
		},
		{
			"bufferView":220,
			"componentType":5123,
			"count":84,
			"type":"SCALAR"
		},
		{
			"bufferView":221,
			"componentType":5126,
			"count":48,
			"max":[
				3.299999952316284,
				4.424999237060547,
				3.299999952316284
			],
			"min":[
				-3.299999952316284,
				-4.42500114440918,
				-3.299999952316284
			],
			"type":"VEC3"
		},
		{
			"bufferView":222,
			"componentType":5126,
			"count":48,
			"type":"VEC3"
		},
		{
			"bufferView":223,
			"componentType":5123,
			"count":84,
			"type":"SCALAR"
		},
		{
			"bufferView":224,
			"componentType":5126,
			"count":48,
			"max":[
				2.5999999046325684,
				2.6500015258789062,
				2.5999999046325684
			],
			"min":[
				-2.5999999046325684,
				-2.6499977111816406,
				-2.5999999046325684
			],
			"type":"VEC3"
		},
		{
			"bufferView":225,
			"componentType":5126,
			"count":48,
			"type":"VEC3"
		},
		{
			"bufferView":226,
			"componentType":5126,
			"count":24,
			"max":[
				0.4249999523162842,
				1.2850003242492676,
				1.6200000047683716
			],
			"min":[
				-0.4249999523162842,
				-1.2850003242492676,
				-1.6200000047683716
			],
			"type":"VEC3"
		},
		{
			"bufferView":227,
			"componentType":5126,
			"count":24,
			"type":"VEC3"
		},
		{
			"bufferView":228,
			"componentType":5123,
			"count":36,
			"type":"SCALAR"
		},
		{
			"bufferView":229,
			"componentType":5126,
			"count":24,
			"max":[
				0.6700000166893005,
				0.9800004959106445,
				0.4249999523162842
			],
			"min":[
				-0.6700000166893005,
				-0.9800004959106445,
				-0.4249999523162842
			],
			"type":"VEC3"
		},
		{
			"bufferView":230,
			"componentType":5126,
			"count":24,
			"type":"VEC3"
		},
		{
			"bufferView":231,
			"componentType":5126,
			"count":48,
			"max":[
				3.2899999618530273,
				2.097498893737793,
				3.2899999618530273
			],
			"min":[
				-3.2899999618530273,
				-2.097500801086426,
				-3.2899999618530273
			],
			"type":"VEC3"
		},
		{
			"bufferView":232,
			"componentType":5126,
			"count":48,
			"type":"VEC3"
		},
		{
			"bufferView":233,
			"componentType":5126,
			"count":24,
			"max":[
				0.4500000476837158,
				0.7099990844726562,
				0.49000000953674316
			],
			"min":[
				-0.4500000476837158,
				-0.7099990844726562,
				-0.49000000953674316
			],
			"type":"VEC3"
		},
		{
			"bufferView":234,
			"componentType":5126,
			"count":24,
			"type":"VEC3"
		},
		{
			"bufferView":235,
			"componentType":5126,
			"count":48,
			"max":[
				3.299999952316284,
				0.34999847412109375,
				3.299999952316284
			],
			"min":[
				-3.299999952316284,
				-0.3500022888183594,
				-3.299999952316284
			],
			"type":"VEC3"
		},
		{
			"bufferView":236,
			"componentType":5126,
			"count":48,
			"type":"VEC3"
		}
	],
	"bufferViews":[
		{
			"buffer":0,
			"byteLength":59124,
			"byteOffset":0,
			"target":34962
		},
		{
			"buffer":0,
			"byteLength":59124,
			"byteOffset":59124,
			"target":34962
		},
		{
			"buffer":0,
			"byteLength":39416,
			"byteOffset":118248,
			"target":34962
		},
		{
			"buffer":0,
			"byteLength":78832,
			"byteOffset":157664,
			"target":34962
		},
		{
			"buffer":0,
			"byteLength":13008,
			"byteOffset":236496,
			"target":34963
		},
		{
			"buffer":0,
			"byteLength":2304,
			"byteOffset":249504,
			"target":34962
		},
		{
			"buffer":0,
			"byteLength":2304,
			"byteOffset":251808,
			"target":34962
		},
		{
			"buffer":0,
			"byteLength":1536,
			"byteOffset":254112,
			"target":34962
		},
		{
			"buffer":0,
			"byteLength":3072,
			"byteOffset":255648,
			"target":34962
		},
		{
			"buffer":0,
			"byteLength":528,
			"byteOffset":258720,
			"target":34963
		},
		{
			"buffer":0,
			"byteLength":1200,
			"byteOffset":259248,
			"target":34962
		},
		{
			"buffer":0,
			"byteLength":1200,
			"byteOffset":260448,
			"target":34962
		},
		{
			"buffer":0,
			"byteLength":800,
			"byteOffset":261648,
			"target":34962
		},
		{
			"buffer":0,
			"byteLength":1600,
			"byteOffset":262448,
			"target":34962
		},
		{
			"buffer":0,
			"byteLength":264,
			"byteOffset":264048,
			"target":34963
		},
		{
			"buffer":0,
			"byteLength":1272,
			"byteOffset":264312,
			"target":34962
		},
		{
			"buffer":0,
			"byteLength":1272,
			"byteOffset":265584,
			"target":34962
		},
		{
			"buffer":0,
			"byteLength":848,
			"byteOffset":266856,
			"target":34962
		},
		{
			"buffer":0,
			"byteLength":1696,
			"byteOffset":267704,
			"target":34962
		},
		{
			"buffer":0,
			"byteLength":264,
			"byteOffset":269400,
			"target":34963
		},
		{
			"buffer":0,
			"byteLength":960,
			"byteOffset":269664,
			"target":34962
		},
		{
			"buffer":0,
			"byteLength":960,
			"byteOffset":270624,
			"target":34962
		},
		{
			"buffer":0,
			"byteLength":640,
			"byteOffset":271584,
			"target":34962
		},
		{
			"buffer":0,
			"byteLength":1280,
			"byteOffset":272224,
			"target":34962
		},
		{
			"buffer":0,
			"byteLength":264,
			"byteOffset":273504,
			"target":34963
		},
		{
			"buffer":0,
			"byteLength":1296,
			"byteOffset":273768,
			"target":34962
		},
		{
			"buffer":0,
			"byteLength":1296,
			"byteOffset":275064,
			"target":34962
		},
		{
			"buffer":0,
			"byteLength":864,
			"byteOffset":276360,
			"target":34962
		},
		{
			"buffer":0,
			"byteLength":1728,
			"byteOffset":277224,
			"target":34962
		},
		{
			"buffer":0,
			"byteLength":264,
			"byteOffset":278952,
			"target":34963
		},
		{
			"buffer":0,
			"byteLength":276948,
			"byteOffset":279216,
			"target":34962
		},
		{
			"buffer":0,
			"byteLength":276948,
			"byteOffset":556164,
			"target":34962
		},
		{
			"buffer":0,
			"byteLength":184632,
			"byteOffset":833112,
			"target":34962
		},
		{
			"buffer":0,
			"byteLength":369264,
			"byteOffset":1017744,
			"target":34962
		},
		{
			"buffer":0,
			"byteLength":114936,
			"byteOffset":1387008,
			"target":34963
		},
		{
			"buffer":0,
			"byteLength":4572,
			"byteOffset":1501944,
			"target":34962
		},
		{
			"buffer":0,
			"byteLength":4572,
			"byteOffset":1506516,
			"target":34962
		},
		{
			"buffer":0,
			"byteLength":3048,
			"byteOffset":1511088,
			"target":34962
		},
		{
			"buffer":0,
			"byteLength":6096,
			"byteOffset":1514136,
			"target":34962
		},
		{
			"buffer":0,
			"byteLength":924,
			"byteOffset":1520232,
			"target":34963
		},
		{
			"buffer":0,
			"byteLength":97188,
			"byteOffset":1521156,
			"target":34962
		},
		{
			"buffer":0,
			"byteLength":97188,
			"byteOffset":1618344,
			"target":34962
		},
		{
			"buffer":0,
			"byteLength":64792,
			"byteOffset":1715532,
			"target":34962
		},
		{
			"buffer":0,
			"byteLength":129584,
			"byteOffset":1780324,
			"target":34962
		},
		{
			"buffer":0,
			"byteLength":19848,
			"byteOffset":1909908,
			"target":34963
		},
		{
			"buffer":0,
			"byteLength":960,
			"byteOffset":1929756,
			"target":34962
		},
		{
			"buffer":0,
			"byteLength":960,
			"byteOffset":1930716,
			"target":34962
		},
		{
			"buffer":0,
			"byteLength":640,
			"byteOffset":1931676,
			"target":34962
		},
		{
			"buffer":0,
			"byteLength":1280,
			"byteOffset":1932316,
			"target":34962
		},
		{
			"buffer":0,
			"byteLength":264,
			"byteOffset":1933596,
			"target":34963
		},
		{
			"buffer":0,
			"byteLength":960,
			"byteOffset":1933860,
			"target":34962
		},
		{
			"buffer":0,
			"byteLength":960,
			"byteOffset":1934820,
			"target":34962
		},
		{
			"buffer":0,
			"byteLength":640,
			"byteOffset":1935780,
			"target":34962
		},
		{
			"buffer":0,
			"byteLength":1280,
			"byteOffset":1936420,
			"target":34962
		},
		{
			"buffer":0,
			"byteLength":264,
			"byteOffset":1937700,
			"target":34963
		},
		{
			"buffer":0,
			"byteLength":158916,
			"byteOffset":1937964,
			"target":34962
		},
		{
			"buffer":0,
			"byteLength":158916,
			"byteOffset":2096880,
			"target":34962
		},
		{
			"buffer":0,
			"byteLength":105944,
			"byteOffset":2255796,
			"target":34962
		},
		{
			"buffer":0,
			"byteLength":211888,
			"byteOffset":2361740,
			"target":34962
		},
		{
			"buffer":0,
			"byteLength":35580,
			"byteOffset":2573628,
			"target":34963
		},
		{
			"buffer":0,
			"byteLength":8928,
			"byteOffset":2609208,
			"target":34962
		},
		{
			"buffer":0,
			"byteLength":8928,
			"byteOffset":2618136,
			"target":34962
		},
		{
			"buffer":0,
			"byteLength":5952,
			"byteOffset":2627064,
			"target":34962
		},
		{
			"buffer":0,
			"byteLength":11904,
			"byteOffset":2633016,
			"target":34962
		},
		{
			"buffer":0,
			"byteLength":1872,
			"byteOffset":2644920,
			"target":34963
		},
		{
			"buffer":0,
			"byteLength":13392,
			"byteOffset":2646792,
			"target":34962
		},
		{
			"buffer":0,
			"byteLength":13392,
			"byteOffset":2660184,
			"target":34962
		},
		{
			"buffer":0,
			"byteLength":8928,
			"byteOffset":2673576,
			"target":34962
		},
		{
			"buffer":0,
			"byteLength":17856,
			"byteOffset":2682504,
			"target":34962
		},
		{
			"buffer":0,
			"byteLength":3324,
			"byteOffset":2700360,
			"target":34963
		},
		{
			"buffer":0,
			"byteLength":2856,
			"byteOffset":2703684,
			"target":34962
		},
		{
			"buffer":0,
			"byteLength":2856,
			"byteOffset":2706540,
			"target":34962
		},
		{
			"buffer":0,
			"byteLength":1904,
			"byteOffset":2709396,
			"target":34962
		},
		{
			"buffer":0,
			"byteLength":3808,
			"byteOffset":2711300,
			"target":34962
		},
		{
			"buffer":0,
			"byteLength":1044,
			"byteOffset":2715108,
			"target":34963
		},
		{
			"buffer":0,
			"byteLength":12936,
			"byteOffset":2716152,
			"target":34962
		},
		{
			"buffer":0,
			"byteLength":12936,
			"byteOffset":2729088,
			"target":34962
		},
		{
			"buffer":0,
			"byteLength":8624,
			"byteOffset":2742024,
			"target":34962
		},
		{
			"buffer":0,
			"byteLength":17248,
			"byteOffset":2750648,
			"target":34962
		},
		{
			"buffer":0,
			"byteLength":3048,
			"byteOffset":2767896,
			"target":34963
		},
		{
			"buffer":0,
			"byteLength":960,
			"byteOffset":2770944,
			"target":34962
		},
		{
			"buffer":0,
			"byteLength":960,
			"byteOffset":2771904,
			"target":34962
		},
		{
			"buffer":0,
			"byteLength":640,
			"byteOffset":2772864,
			"target":34962
		},
		{
			"buffer":0,
			"byteLength":1280,
			"byteOffset":2773504,
			"target":34962
		},
		{
			"buffer":0,
			"byteLength":264,
			"byteOffset":2774784,
			"target":34963
		},
		{
			"buffer":0,
			"byteLength":35004,
			"byteOffset":2775048,
			"target":34962
		},
		{
			"buffer":0,
			"byteLength":35004,
			"byteOffset":2810052,
			"target":34962
		},
		{
			"buffer":0,
			"byteLength":23336,
			"byteOffset":2845056,
			"target":34962
		},
		{
			"buffer":0,
			"byteLength":46672,
			"byteOffset":2868392,
			"target":34962
		},
		{
			"buffer":0,
			"byteLength":22296,
			"byteOffset":2915064,
			"target":34963
		},
		{
			"buffer":0,
			"byteLength":1152,
			"byteOffset":2937360,
			"target":34962
		},
		{
			"buffer":0,
			"byteLength":1152,
			"byteOffset":2938512,
			"target":34962
		},
		{
			"buffer":0,
			"byteLength":768,
			"byteOffset":2939664,
			"target":34962
		},
		{
			"buffer":0,
			"byteLength":1536,
			"byteOffset":2940432,
			"target":34962
		},
		{
			"buffer":0,
			"byteLength":264,
			"byteOffset":2941968,
			"target":34963
		},
		{
			"buffer":0,
			"byteLength":91524,
			"byteOffset":2942232,
			"target":34962
		},
		{
			"buffer":0,
			"byteLength":91524,
			"byteOffset":3033756,
			"target":34962
		},
		{
			"buffer":0,
			"byteLength":61016,
			"byteOffset":3125280,
			"target":34962
		},
		{
			"buffer":0,
			"byteLength":122032,
			"byteOffset":3186296,
			"target":34962
		},
		{
			"buffer":0,
			"byteLength":20874,
			"byteOffset":3308328,
			"target":34963
		},
		{
			"buffer":0,
			"byteLength":2304,
			"byteOffset":3329204,
			"target":34962
		},
		{
			"buffer":0,
			"byteLength":2304,
			"byteOffset":3331508,
			"target":34962
		},
		{
			"buffer":0,
			"byteLength":1536,
			"byteOffset":3333812,
			"target":34962
		},
		{
			"buffer":0,
			"byteLength":3072,
			"byteOffset":3335348,
			"target":34962
		},
		{
			"buffer":0,
			"byteLength":528,
			"byteOffset":3338420,
			"target":34963
		},
		{
			"buffer":0,
			"byteLength":26652,
			"byteOffset":3338948,
			"target":34962
		},
		{
			"buffer":0,
			"byteLength":26652,
			"byteOffset":3365600,
			"target":34962
		},
		{
			"buffer":0,
			"byteLength":17768,
			"byteOffset":3392252,
			"target":34962
		},
		{
			"buffer":0,
			"byteLength":35536,
			"byteOffset":3410020,
			"target":34962
		},
		{
			"buffer":0,
			"byteLength":8640,
			"byteOffset":3445556,
			"target":34963
		},
		{
			"buffer":0,
			"byteLength":14148,
			"byteOffset":3454196,
			"target":34962
		},
		{
			"buffer":0,
			"byteLength":14148,
			"byteOffset":3468344,
			"target":34962
		},
		{
			"buffer":0,
			"byteLength":9432,
			"byteOffset":3482492,
			"target":34962
		},
		{
			"buffer":0,
			"byteLength":18864,
			"byteOffset":3491924,
			"target":34962
		},
		{
			"buffer":0,
			"byteLength":7404,
			"byteOffset":3510788,
			"target":34963
		},
		{
			"buffer":0,
			"byteLength":960,
			"byteOffset":3518192,
			"target":34962
		},
		{
			"buffer":0,
			"byteLength":960,
			"byteOffset":3519152,
			"target":34962
		},
		{
			"buffer":0,
			"byteLength":640,
			"byteOffset":3520112,
			"target":34962
		},
		{
			"buffer":0,
			"byteLength":1280,
			"byteOffset":3520752,
			"target":34962
		},
		{
			"buffer":0,
			"byteLength":264,
			"byteOffset":3522032,
			"target":34963
		},
		{
			"buffer":0,
			"byteLength":960,
			"byteOffset":3522296,
			"target":34962
		},
		{
			"buffer":0,
			"byteLength":960,
			"byteOffset":3523256,
			"target":34962
		},
		{
			"buffer":0,
			"byteLength":640,
			"byteOffset":3524216,
			"target":34962
		},
		{
			"buffer":0,
			"byteLength":1280,
			"byteOffset":3524856,
			"target":34962
		},
		{
			"buffer":0,
			"byteLength":264,
			"byteOffset":3526136,
			"target":34963
		},
		{
			"buffer":0,
			"byteLength":960,
			"byteOffset":3526400,
			"target":34962
		},
		{
			"buffer":0,
			"byteLength":960,
			"byteOffset":3527360,
			"target":34962
		},
		{
			"buffer":0,
			"byteLength":640,
			"byteOffset":3528320,
			"target":34962
		},
		{
			"buffer":0,
			"byteLength":1280,
			"byteOffset":3528960,
			"target":34962
		},
		{
			"buffer":0,
			"byteLength":960,
			"byteOffset":3530240,
			"target":34962
		},
		{
			"buffer":0,
			"byteLength":960,
			"byteOffset":3531200,
			"target":34962
		},
		{
			"buffer":0,
			"byteLength":640,
			"byteOffset":3532160,
			"target":34962
		},
		{
			"buffer":0,
			"byteLength":1280,
			"byteOffset":3532800,
			"target":34962
		},
		{
			"buffer":0,
			"byteLength":264,
			"byteOffset":3534080,
			"target":34963
		},
		{
			"buffer":0,
			"byteLength":155592,
			"byteOffset":3534344,
			"target":34962
		},
		{
			"buffer":0,
			"byteLength":155592,
			"byteOffset":3689936,
			"target":34962
		},
		{
			"buffer":0,
			"byteLength":103728,
			"byteOffset":3845528,
			"target":34962
		},
		{
			"buffer":0,
			"byteLength":207456,
			"byteOffset":3949256,
			"target":34962
		},
		{
			"buffer":0,
			"byteLength":39696,
			"byteOffset":4156712,
			"target":34963
		},
		{
			"buffer":0,
			"byteLength":3360,
			"byteOffset":4196408,
			"target":34962
		},
		{
			"buffer":0,
			"byteLength":3360,
			"byteOffset":4199768,
			"target":34962
		},
		{
			"buffer":0,
			"byteLength":2240,
			"byteOffset":4203128,
			"target":34962
		},
		{
			"buffer":0,
			"byteLength":4480,
			"byteOffset":4205368,
			"target":34962
		},
		{
			"buffer":0,
			"byteLength":1224,
			"byteOffset":4209848,
			"target":34963
		},
		{
			"buffer":0,
			"byteLength":4176,
			"byteOffset":4211072,
			"target":34962
		},
		{
			"buffer":0,
			"byteLength":4176,
			"byteOffset":4215248,
			"target":34962
		},
		{
			"buffer":0,
			"byteLength":2784,
			"byteOffset":4219424,
			"target":34962
		},
		{
			"buffer":0,
			"byteLength":5568,
			"byteOffset":4222208,
			"target":34962
		},
		{
			"buffer":0,
			"byteLength":960,
			"byteOffset":4227776,
			"target":34963
		},
		{
			"buffer":0,
			"byteLength":1152,
			"byteOffset":4228736,
			"target":34962
		},
		{
			"buffer":0,
			"byteLength":1152,
			"byteOffset":4229888,
			"target":34962
		},
		{
			"buffer":0,
			"byteLength":768,
			"byteOffset":4231040,
			"target":34962
		},
		{
			"buffer":0,
			"byteLength":1536,
			"byteOffset":4231808,
			"target":34962
		},
		{
			"buffer":0,
			"byteLength":264,
			"byteOffset":4233344,
			"target":34963
		},
		{
			"buffer":0,
			"byteLength":1224,
			"byteOffset":4233608,
			"target":34962
		},
		{
			"buffer":0,
			"byteLength":1224,
			"byteOffset":4234832,
			"target":34962
		},
		{
			"buffer":0,
			"byteLength":816,
			"byteOffset":4236056,
			"target":34962
		},
		{
			"buffer":0,
			"byteLength":1632,
			"byteOffset":4236872,
			"target":34962
		},
		{
			"buffer":0,
			"byteLength":264,
			"byteOffset":4238504,
			"target":34963
		},
		{
			"buffer":0,
			"byteLength":960,
			"byteOffset":4238768,
			"target":34962
		},
		{
			"buffer":0,
			"byteLength":960,
			"byteOffset":4239728,
			"target":34962
		},
		{
			"buffer":0,
			"byteLength":640,
			"byteOffset":4240688,
			"target":34962
		},
		{
			"buffer":0,
			"byteLength":1280,
			"byteOffset":4241328,
			"target":34962
		},
		{
			"buffer":0,
			"byteLength":960,
			"byteOffset":4242608,
			"target":34962
		},
		{
			"buffer":0,
			"byteLength":960,
			"byteOffset":4243568,
			"target":34962
		},
		{
			"buffer":0,
			"byteLength":640,
			"byteOffset":4244528,
			"target":34962
		},
		{
			"buffer":0,
			"byteLength":1280,
			"byteOffset":4245168,
			"target":34962
		},
		{
			"buffer":0,
			"byteLength":188472,
			"byteOffset":4246448,
			"target":34962
		},
		{
			"buffer":0,
			"byteLength":188472,
			"byteOffset":4434920,
			"target":34962
		},
		{
			"buffer":0,
			"byteLength":125648,
			"byteOffset":4623392,
			"target":34962
		},
		{
			"buffer":0,
			"byteLength":251296,
			"byteOffset":4749040,
			"target":34962
		},
		{
			"buffer":0,
			"byteLength":41172,
			"byteOffset":5000336,
			"target":34963
		},
		{
			"buffer":0,
			"byteLength":3900,
			"byteOffset":5041508,
			"target":34962
		},
		{
			"buffer":0,
			"byteLength":3900,
			"byteOffset":5045408,
			"target":34962
		},
		{
			"buffer":0,
			"byteLength":2600,
			"byteOffset":5049308,
			"target":34962
		},
		{
			"buffer":0,
			"byteLength":5200,
			"byteOffset":5051908,
			"target":34962
		},
		{
			"buffer":0,
			"byteLength":3456,
			"byteOffset":5057108,
			"target":34963
		},
		{
			"buffer":0,
			"byteLength":52080,
			"byteOffset":5060564,
			"target":34962
		},
		{
			"buffer":0,
			"byteLength":52080,
			"byteOffset":5112644,
			"target":34962
		},
		{
			"buffer":0,
			"byteLength":34720,
			"byteOffset":5164724,
			"target":34962
		},
		{
			"buffer":0,
			"byteLength":69440,
			"byteOffset":5199444,
			"target":34962
		},
		{
			"buffer":0,
			"byteLength":25152,
			"byteOffset":5268884,
			"target":34963
		},
		{
			"buffer":0,
			"byteLength":2304,
			"byteOffset":5294036,
			"target":34962
		},
		{
			"buffer":0,
			"byteLength":2304,
			"byteOffset":5296340,
			"target":34962
		},
		{
			"buffer":0,
			"byteLength":1536,
			"byteOffset":5298644,
			"target":34962
		},
		{
			"buffer":0,
			"byteLength":3072,
			"byteOffset":5300180,
			"target":34962
		},
		{
			"buffer":0,
			"byteLength":265284,
			"byteOffset":5303252,
			"target":34962
		},
		{
			"buffer":0,
			"byteLength":265284,
			"byteOffset":5568536,
			"target":34962
		},
		{
			"buffer":0,
			"byteLength":176856,
			"byteOffset":5833820,
			"target":34962
		},
		{
			"buffer":0,
			"byteLength":353712,
			"byteOffset":6010676,
			"target":34962
		},
		{
			"buffer":0,
			"byteLength":53880,
			"byteOffset":6364388,
			"target":34963
		},
		{
			"buffer":0,
			"byteLength":2904,
			"byteOffset":6418268,
			"target":34962
		},
		{
			"buffer":0,
			"byteLength":2904,
			"byteOffset":6421172,
			"target":34962
		},
		{
			"buffer":0,
			"byteLength":1936,
			"byteOffset":6424076,
			"target":34962
		},
		{
			"buffer":0,
			"byteLength":3872,
			"byteOffset":6426012,
			"target":34962
		},
		{
			"buffer":0,
			"byteLength":672,
			"byteOffset":6429884,
			"target":34963
		},
		{
			"buffer":0,
			"byteLength":27912,
			"byteOffset":6430556,
			"target":34962
		},
		{
			"buffer":0,
			"byteLength":27912,
			"byteOffset":6458468,
			"target":34962
		},
		{
			"buffer":0,
			"byteLength":18608,
			"byteOffset":6486380,
			"target":34962
		},
		{
			"buffer":0,
			"byteLength":37216,
			"byteOffset":6504988,
			"target":34962
		},
		{
			"buffer":0,
			"byteLength":19170,
			"byteOffset":6542204,
			"target":34963
		},
		{
			"buffer":0,
			"byteLength":26772,
			"byteOffset":6561376,
			"target":34962
		},
		{
			"buffer":0,
			"byteLength":26772,
			"byteOffset":6588148,
			"target":34962
		},
		{
			"buffer":0,
			"byteLength":17848,
			"byteOffset":6614920,
			"target":34962
		},
		{
			"buffer":0,
			"byteLength":35696,
			"byteOffset":6632768,
			"target":34962
		},
		{
			"buffer":0,
			"byteLength":17862,
			"byteOffset":6668464,
			"target":34963
		},
		{
			"buffer":0,
			"byteLength":960,
			"byteOffset":6686328,
			"target":34962
		},
		{
			"buffer":0,
			"byteLength":960,
			"byteOffset":6687288,
			"target":34962
		},
		{
			"buffer":0,
			"byteLength":640,
			"byteOffset":6688248,
			"target":34962
		},
		{
			"buffer":0,
			"byteLength":1280,
			"byteOffset":6688888,
			"target":34962
		},
		{
			"buffer":0,
			"byteLength":401100,
			"byteOffset":6690168,
			"target":34962
		},
		{
			"buffer":0,
			"byteLength":401100,
			"byteOffset":7091268,
			"target":34962
		},
		{
			"buffer":0,
			"byteLength":267400,
			"byteOffset":7492368,
			"target":34962
		},
		{
			"buffer":0,
			"byteLength":534800,
			"byteOffset":7759768,
			"target":34962
		},
		{
			"buffer":0,
			"byteLength":177780,
			"byteOffset":8294568,
			"target":34963
		},
		{
			"buffer":0,
			"byteLength":576,
			"byteOffset":8472348,
			"target":34962
		},
		{
			"buffer":0,
			"byteLength":576,
			"byteOffset":8472924,
			"target":34962
		},
		{
			"buffer":0,
			"byteLength":168,
			"byteOffset":8473500,
			"target":34963
		},
		{
			"buffer":0,
			"byteLength":576,
			"byteOffset":8473668,
			"target":34962
		},
		{
			"buffer":0,
			"byteLength":576,
			"byteOffset":8474244,
			"target":34962
		},
		{
			"buffer":0,
			"byteLength":168,
			"byteOffset":8474820,
			"target":34963
		},
		{
			"buffer":0,
			"byteLength":576,
			"byteOffset":8474988,
			"target":34962
		},
		{
			"buffer":0,
			"byteLength":576,
			"byteOffset":8475564,
			"target":34962
		},
		{
			"buffer":0,
			"byteLength":168,
			"byteOffset":8476140,
			"target":34963
		},
		{
			"buffer":0,
			"byteLength":576,
			"byteOffset":8476308,
			"target":34962
		},
		{
			"buffer":0,
			"byteLength":576,
			"byteOffset":8476884,
			"target":34962
		},
		{
			"buffer":0,
			"byteLength":288,
			"byteOffset":8477460,
			"target":34962
		},
		{
			"buffer":0,
			"byteLength":288,
			"byteOffset":8477748,
			"target":34962
		},
		{
			"buffer":0,
			"byteLength":72,
			"byteOffset":8478036,
			"target":34963
		},
		{
			"buffer":0,
			"byteLength":288,
			"byteOffset":8478108,
			"target":34962
		},
		{
			"buffer":0,
			"byteLength":288,
			"byteOffset":8478396,
			"target":34962
		},
		{
			"buffer":0,
			"byteLength":576,
			"byteOffset":8478684,
			"target":34962
		},
		{
			"buffer":0,
			"byteLength":576,
			"byteOffset":8479260,
			"target":34962
		},
		{
			"buffer":0,
			"byteLength":288,
			"byteOffset":8479836,
			"target":34962
		},
		{
			"buffer":0,
			"byteLength":288,
			"byteOffset":8480124,
			"target":34962
		},
		{
			"buffer":0,
			"byteLength":576,
			"byteOffset":8480412,
			"target":34962
		},
		{
			"buffer":0,
			"byteLength":576,
			"byteOffset":8480988,
			"target":34962
		}
	],
	"samplers":[
		{
			"magFilter":9729,
			"minFilter":9987
		}
	],
	"buffers":[
		{
			"byteLength":8481564,
			"uri":"torchship_interior.bin"
		}
	]
}
